<svg xmlns="http://www.w3.org/2000/svg" version="1.1" xmlns:xlink="http://www.w3.org/1999/xlink" width="1000" height="1000"><metadata><rdf:RDF xmlns:rdf="http://www.w3.org/1999/02/22-rdf-syntax-ns#" xmlns:dc="http://purl.org/dc/elements/1.1/"><rdf:Description><dc:creator>RealFaviconGenerator</dc:creator><dc:source>https://realfavicongenerator.net</dc:source></rdf:Description></rdf:RDF></metadata><g clip-path="url(#SvgjsClipPath1897)"><rect width="1000" height="1000" fill="#ffffff"></rect><g transform="matrix(5.189028910303929,0,0,5.189028910303929,220.31134173461825,150)"><svg xmlns="http://www.w3.org/2000/svg" version="1.1" xmlns:xlink="http://www.w3.org/1999/xlink" id="Слой_1" x="0px" y="0px" viewBox="0 0 107.8 134.9" style="enable-background:new 0 0 107.8 134.9;" xml:space="preserve" width="107.8" height="134.9"><style type="text/css">
	.st0{fill:#C4302B;}
	.st1{fill:none;}
</style><path d="M38.8,9.5c-0.4-4,2.3-9,6.2-9.4s6,2,6.4,6s-0.7,8.8-4.7,9.2S39.2,13.4,38.8,9.5z"></path><path class="st0" d="M61.6,11.3c-0.4-4,2.3-9,6.2-9.4s6,2,6.4,6s-0.7,8.8-4.7,9.2C65.6,17.5,62,15.3,61.6,11.3z"></path><path class="st1" d="M39.9,66c2.1,5.8,4.2,11.6,6.2,17.6c1.8,5.1,3.7,10.8,5.7,16.8c0.3,0.9,1.7,0.9,2,0l3-7.4v0.2l2.7-7.1
	c0.3-1,0.7-1.9,1.2-2.9s0.9-1.9,1.2-2.9c3.6-9.4,7.3-18.6,11-27.6c2.3-5.7,4.9-11.3,7.6-16.8c-4.2-2.9-9.3-4.3-15.3-4.3
	c-10.3,0-22.3,5.1-32.6,13.8c0.3,0.8,0.6,1.6,0.9,2.4C35.7,54.1,37.8,60.2,39.9,66z"></path><path class="st1" d="M20,59.3c-4.6,6.9-7.2,13.9-7.2,20.1c0,14.9,11.3,28.4,26.7,34.7c-4.1-11.2-8.1-22.5-12.1-33.6
	C24.9,73.4,22.5,66.4,20,59.3z"></path><path class="st1" d="M65.2,117.2C84.6,113.4,95,93.6,95,74.7c0-9-1.2-17-3.6-23.6c-4.6,9.7-8.8,19.5-12.6,29.5
	C74.1,92.9,69.6,105.1,65.2,117.2z"></path><path class="st0" d="M98.2,37.4c0.8-1.4,1.5-2.9,2.3-4.3c0,0,0-0.1,0.1-0.1c0.2-0.6,0.4-1.2,0.5-1.7c0.1-0.6,0.2-1.2,0.2-1.8
	c0-2.4-0.8-4.3-2.5-5.8c-1.6-1.4-3.5-2.2-5.7-2.2c-1.7,0-3.2,0.4-4.4,1.3c-1.1,0.7-2.1,1.8-3,3.2C90.6,28.6,94.9,32.5,98.2,37.4z"></path><path class="st0" d="M44.2,126.9c0.3,0.9,0.6,1.7,0.9,2.6v0.1c0.9,1.8,2,3.1,3.4,4s2.8,1.4,4.4,1.4c1.7,0,3.3-0.5,4.8-1.6
	s2.6-2.7,3.4-4.7c0-0.1,0-0.1,0.1-0.2c-0.9,0-1.8,0.1-2.7,0.1C53.7,128.5,48.8,127.9,44.2,126.9z"></path><path d="M99.5,39.4c-0.4-0.7-0.8-1.3-1.3-2c-3.4-4.9-7.6-8.8-12.6-11.5C79.8,22.6,72.9,21,65.1,21C53,21,40,25.7,28.4,34
	c1.5,4,2.9,7.8,4.1,11.4c10.3-8.7,22.3-13.8,32.6-13.8c6.1,0,11.1,1.4,15.3,4.3c3,2,5.5,4.8,7.6,8.3c1.3,2.1,2.4,4.4,3.3,7
	c2.4,6.6,3.6,14.6,3.6,23.6c0,18.8-10.4,38.7-29.8,42.5c-2.1,0.4-4.4,0.6-6.7,0.6c-6.7,0-13.1-1.4-19-3.7
	C24,107.8,12.8,94.3,12.8,79.4c0-6.1,2.6-13.2,7.2-20.1c-1.6-4.5-3.2-9-4.7-13.5C5.6,56.6,0,68.8,0,79.4c0,12.5,6.3,25.1,17.4,34.4
	c7.5,6.3,16.9,10.9,26.8,13.1c4.7,1.1,9.5,1.6,14.3,1.6c0.9,0,1.8,0,2.7-0.1c30.3-1.5,46.6-28.4,46.6-53.7
	C107.8,64.9,106.4,50.7,99.5,39.4z"></path><path class="st0" d="M88.1,44.1c-2.1-3.5-4.6-6.2-7.6-8.3c-2.7,5.5-5.2,11.1-7.6,16.8c-3.7,9-7.3,18.2-11,27.6
	c-0.3,1-0.7,1.9-1.2,2.9S59.8,85,59.5,86l-2.7,7.1V93l-3,7.4c-0.3,0.8-1.7,0.8-2,0c-2-6.1-3.9-11.7-5.7-16.8
	c-2-5.9-4.1-11.8-6.2-17.6c-2.1-5.8-4.3-11.9-6.5-18.2c-0.3-0.8-0.6-1.6-0.9-2.4c-1.3-3.5-2.7-7.3-4.1-11.4c-0.9-2.5-1.8-5-2.8-7.6
	c0-0.1-0.1-0.1-0.1-0.2c-2-3.2-4.6-4.8-7.8-4.8c-2.2,0-4,0.7-5.5,2.2S9.9,27.2,9.9,30v0.9c0,0.2,0,0.3,0.1,0.3
	c0.1-0.1,0.1,0,0.1,0.1c1.7,4.9,3.4,9.8,5.1,14.7c1.6,4.5,3.2,9,4.7,13.5c2.5,7.1,5,14.1,7.5,21.1c4,11.2,8,22.4,12.1,33.6
	c5.8,2.4,12.3,3.7,19,3.7c2.4,0,4.6-0.2,6.7-0.6c4.4-12.1,8.9-24.3,13.6-36.6c3.8-9.9,8-19.8,12.6-29.5
	C90.4,48.6,89.4,46.2,88.1,44.1z"></path></svg></g></g><defs><clipPath id="SvgjsClipPath1897"><rect width="1000" height="1000" x="0" y="0" rx="250" ry="250"></rect></clipPath></defs></svg>