<?xml version="1.0" encoding="utf-8"?>
<!-- Generator: Adobe Illustrator 24.0.1, SVG Export Plug-In . SVG Version: 6.00 Build 0)  -->
<svg version="1.1" id="Слой_1" xmlns="http://www.w3.org/2000/svg" xmlns:xlink="http://www.w3.org/1999/xlink" x="0px" y="0px"
	 viewBox="0 0 568.1 588.6" style="enable-background:new 0 0 568.1 588.6;" xml:space="preserve">
<style type="text/css">
	.st0{fill:#ECECEC;}
	.st1{fill:#C0C0C0;}
	.st2{fill:#919191;}
	.st3{fill:#5C5C5C;}
</style>
<g>
	<path class="st0" d="M531.5,338.1c9.8,2.9,20.1,4.9,27.9,12c8.1,7.3,10.5,16.6,7.4,27.3c-4.5,15.1-10.1,29.7-16.9,44
		c-9.6,20-21.3,38.6-35,56c-16.9,21.4-36.5,39.9-58.6,55.8c-30.4,22-63.9,37.5-100.3,46.6c-20,5-40.3,7.7-61,8.6
		c-43.7,1.9-85.5-6.1-125.6-22.8c-28-11.6-53.4-27.5-76.5-47.2c-21.4-18.2-39.6-39-55.1-62.2C21.3,431.3,8.9,404.6,1,375.8
		c-3.6-13,3.2-26.1,15.8-31c6.6-2.6,13.3-5,20-7.4c1.9,1.2,2.3,3,2.8,5.1c5,24,12.8,46.9,24.4,68.5c10.4,19.5,23.2,37.2,38.3,53.4
		c16.5,17.6,35.1,32.5,55.9,44.7c25.9,15.2,53.7,25.2,83.3,30.4c18.2,3.2,36.5,4.1,54.8,3.3c31-1.3,60.7-8.6,89.1-21.1
		c32.1-14.2,59.9-34.5,83.4-60.5c30.4-33.6,50.2-72.7,59.4-117.1C528.7,341.9,528.1,338.8,531.5,338.1z"/>
	<path class="st0" d="M36.8,251.1c-6.3-2.3-12.7-4.6-19-6.8C4.2,239.5-2.7,223.9,1,211.9c6.6-21.7,15.1-42.6,26.3-62.3
		c10-17.6,21.7-34.1,35-49.4c12-13.8,25.3-26.2,39.7-37.5c21.4-16.9,44.8-30.5,70-40.8c23.5-9.6,47.8-16.1,72.9-19.4
		c10-1.3,20.1-2,30.2-2.4c31.9-1.3,63,3.1,93.5,12.1c24.8,7.3,48.2,17.8,70.3,31.4c21,13,40.2,28.3,57.3,46.1
		c25.3,26.2,45.1,56.1,59.3,89.7c4.5,10.6,8.4,21.4,11.6,32.4c3.7,12.9-2.8,26.7-15.3,31.6c-6.7,2.7-13.6,5-20.4,7.5
		c-2.5-1.2-2.6-3.8-3.1-6c-3.1-15.6-7.8-30.7-13.8-45.4c-10.3-25.3-24.6-48.2-42.6-68.7c-21.4-24.6-46.7-44.3-75.8-59
		C374,60.7,350.5,53.2,326,49c-17.6-3-35.5-4.1-53.3-3.2c-32.1,1.6-62.9,8.8-92.2,22.3C153.7,80.3,130,96.8,109,117.3
		c-22.1,21.7-39.3,46.7-52.2,74.7c-8.1,17.5-13.6,35.9-17.4,54.8C39,248.7,38.5,250.2,36.8,251.1z"/>
	<path class="st1" d="M531.5,338.1c-2.8,12.5-5.6,25.1-9.8,37.2c-10.7,30.8-26.5,58.5-48,83.1c-22.8,26.1-49.6,47-80.9,61.9
		c-25.7,12.2-52.6,20.1-81,23.1c-13.2,1.4-26.4,1.8-39.6,1.3c-30.8-1.3-60.3-8.2-88.5-20.5c-24-10.4-45.9-24.4-65.5-41.7
		c-22.1-19.5-40.3-42.1-54.5-68C50.8,390.9,42,366,37.1,339.7c-0.1-0.7-0.2-1.5-0.3-2.2c14.1-4.5,28.3-8.7,42.7-12
		c1.4,1.1,2.1,2.6,2.5,4.4c6.9,38.7,23.7,72.5,49.8,101.8c17.6,19.7,38.5,35.1,62.1,46.8c21.8,10.8,44.9,17.1,69.2,19.6
		c33.1,3.5,65-1,95.9-12.9c23.8-9.1,44.9-22.6,63.8-39.8c25.5-23.2,43.5-51.2,55.2-83.4c3.8-10.5,6.3-21.3,8.3-32.2
		c0.3-1.9,1.1-3.3,2.6-4.3c13.5,3,26.7,7,39.9,11.1C529.6,336.9,530.5,337.6,531.5,338.1z"/>
	<path class="st1" d="M36.8,251.1c7.7-44,25.9-83.3,54.6-117.5c20.3-24.2,44.3-44.1,72.2-59.3c26.1-14.2,53.7-23.6,83-28
		c18.4-2.8,37-3.2,55.6-2c33.5,2.3,65.2,11.1,95.1,26.1c29.3,14.7,54.5,34.6,76,59.2c21.8,24.8,37.9,52.9,48.5,84.1
		c4.2,12.2,7.4,24.6,9.5,37.3c-14.1,4.6-28.2,8.7-42.7,12c-1.5-1-2.3-2.4-2.6-4.3c-5.5-31.8-18-60.6-37.1-86.6
		c-17.8-24.2-40.1-43.2-66.4-57.7c-20.9-11.6-43.2-18.9-66.6-22.7c-7.9-1.3-15.8-1.7-23.8-2.1c-20.4-1.1-40.3,1.3-60,6.3
		c-29.8,7.6-56.3,21.5-79.9,41.2c-30.1,25.1-50.9,56.5-63.4,93.6c-3,9-5.3,18.2-6.8,27.6c-0.3,1.9-1,3.6-2.6,4.8
		C65,259.9,50.8,255.7,36.8,251.1z"/>
	<path class="st2" d="M79.4,263.1c2-15.8,6.3-31,12.3-45.8c9.4-23.1,22.4-43.9,39.3-62.4c24.7-27.1,54.5-46.2,89.3-57.5
		c17.8-5.8,36-8.8,54.8-9.6c24.7-1.1,48.8,2.1,72.3,9.5c25.4,8,48.3,20.8,68.9,37.8c24,19.8,42.4,43.9,55.6,72
		c8.4,17.9,13.9,36.6,16.8,56.1c-14.3,3.7-28.9,6.5-43.5,9c-1.5-1-1.7-2.7-1.9-4.3c-3.8-22.5-11.8-43.4-24.6-62.2
		c-27.3-40.2-65-64.2-113.2-70.9c-33.8-4.7-66,1-96.2,16.7c-28.9,15.1-51.2,37-66.9,65.6c-8.5,15.5-14.3,31.8-17.2,49.2
		c-0.4,2.1-0.4,4.3-2.2,5.8C108.3,269.5,93.8,266.8,79.4,263.1z"/>
	<path class="st2" d="M488.7,325.5c-4.8,32.7-17.1,62.4-36.3,89.3c-20.5,28.7-46.9,50.6-78.6,66c-24.5,11.9-50.5,18.4-77.9,19.9
		c-37.7,2.1-73.3-5.2-106.8-22.5c-39.2-20.3-69-50.1-89.3-89.3c-9.9-19.1-16.7-39.2-20.1-60.5c-0.2-1-0.2-2-0.3-3
		c14.4-3.6,28.9-6.4,43.4-8.9c2,1.7,2,4.2,2.4,6.5c5,28.6,17.1,53.9,36,75.9c27.1,31.6,61.6,50.4,102.8,55.3
		c47.3,5.6,89.7-7.1,125.9-38.4c29.2-25.2,46.6-57.2,53.3-95c0.3-1.6,0.4-3.3,1.9-4.3C459.8,319.1,474.3,321.9,488.7,325.5z"/>
	<path d="M165.7,310.5c11.7-1.9,23.5-2.8,35.3-3.7c33.7-2.8,67.5-3.6,101.4-3.1c26,0.4,51.9,1.7,77.7,4.3c7.4,0.7,14.9,1.2,22.3,2.5
		c1.5,1.8,1.3,4,0.8,6.1c-4.6,23.3-14.8,43.8-31.3,61c-15.5,16.3-34.1,27.5-55.8,33.5c-13.2,3.6-26.6,4.9-40.4,3.9
		c-26-1.7-48.9-10.8-68.8-27.3c-22.6-18.7-37-42.6-42.2-71.7C164.5,314.2,163.7,312.1,165.7,310.5z"/>
	<path d="M402.5,278c-8.7,1.6-17.6,2.2-26.4,3c-38.1,3.5-76.3,4.5-114.5,3.8c-24.7-0.4-49.4-1.8-74-4.3c-7.3-0.7-14.7-1.1-21.9-2.5
		c-2-1.7-1.2-3.9-0.8-5.9c3.5-19.8,11.6-37.6,24.3-53.2c21-25.8,48.1-41.4,81.4-44.9c34-3.6,64.6,5.3,91,27.2
		c22.3,18.5,36.2,42.2,41.6,70.7C403.5,274,404,276.2,402.5,278z"/>
	<path class="st3" d="M402.5,278c-2.1-12.1-5.1-23.9-10.6-35c-19.1-37.9-49.6-60.8-91.8-66.8c-59-8.4-112.4,27.9-129.7,81.3
		c-2.2,6.7-3.5,13.5-4.7,20.4c-10.4-0.6-20.7-2.5-31-4c-3.9-0.6-7.8-1.3-11.8-2c-0.4-6.1,1.4-11.9,2.8-17.6
		c6.3-25,17.8-47.3,34.8-66.7c27.7-31.7,62.6-50.5,104.4-55.3c45-5.1,85.8,6.3,121.3,34.8c31.8,25.5,51.1,58.6,58.6,98.5
		c0.4,2.1,0.6,4.2,0.4,6.3C431,274.5,416.8,276.9,402.5,278z"/>
	<path class="st3" d="M165.7,310.5c3.1,20.9,10.7,40,23.8,56.6c22,27.7,50.6,43.3,86.1,46c59.9,4.7,114.7-37.1,125.8-97.1
		c0.3-1.8,0.7-3.7,1-5.5c10.3,0.7,20.4,2.6,30.7,4c4.1,0.6,8.1,1.3,12.1,2c-0.2,11-3.5,21.4-7.1,31.6c-8.5,24.3-22,45.5-40.6,63.4
		c-24,23-52.3,37.9-85.2,43.3C262,463,216.8,451,177.8,418c-29.7-25.1-47.7-57.3-54.6-95.5c-0.4-2-0.9-3.9-0.3-5.9
		c13.2-2.4,26.5-4.1,39.8-5.9C163.7,310.5,164.7,310.5,165.7,310.5z"/>
</g>
</svg>
