<?xml version="1.0" encoding="utf-8"?>
<!-- Generator: Adobe Illustrator 24.0.1, SVG Export Plug-In . SVG Version: 6.00 Build 0)  -->
<svg version="1.1" id="Слой_1" xmlns="http://www.w3.org/2000/svg" xmlns:xlink="http://www.w3.org/1999/xlink" x="0px" y="0px"
	 viewBox="0 0 300.1 299.8" style="enable-background:new 0 0 300.1 299.8;" xml:space="preserve">
<style type="text/css">
	.st0{fill:#CB0001;}
	.st1{fill:#FEFEFE;}
	.st2{fill:#CD0708;}
	.st3{fill:#CD0607;}
	.st4{fill:#CC0607;}
	.st5{fill:#C90404;}
	.st6{fill:#C90303;}
	.st7{fill:#C90505;}
	.st8{fill:#CB0405;}
	.st9{fill:#CB0707;}
	.st10{fill:#FEFDFD;}
	.st11{fill:#FEFCFC;}
	.st12{fill:#CB0809;}
	.st13{fill:#CB0B0B;}
	.st14{fill:#CB0A0B;}
	.st15{fill:#CC0E0E;}
	.st16{fill:#CC0C0C;}
	.st17{fill:#CD1212;}
	.st18{fill:#CC0D0E;}
	.st19{fill:#CD1112;}
	.st20{fill:#CC0F10;}
	.st21{fill:#CC1010;}
	.st22{fill:#CB0C0C;}
	.st23{fill:#CB0A0A;}
	.st24{fill:#CC0F0F;}
	.st25{fill:#CD1111;}
	.st26{fill:#CC1111;}
	.st27{fill:#FDFAFA;}
	.st28{fill:#FCF4F4;}
	.st29{fill:#CC0B0C;}
	.st30{fill:#CF1B1B;}
	.st31{fill:#CA0909;}
	.st32{fill:#F8E2E2;}
	.st33{fill:#CC0B0B;}
	.st34{fill:#CD1818;}
	.st35{fill:#CC0D0D;}
	.st36{fill:#CD1B1B;}
	.st37{fill:#CA0404;}
	.st38{fill:#CB0C0D;}
	.st39{fill:#CB1111;}
	.st40{fill:#CC1616;}
	.st41{fill:#F6D9D9;}
	.st42{fill:#CE1515;}
	.st43{fill:#D02021;}
	.st44{fill:#D32527;}
	.st45{fill:#D63B3C;}
	.st46{fill:#CD1717;}
	.st47{fill:#D54142;}
	.st48{fill:#CE2121;}
	.st49{fill:#D2292A;}
	.st50{fill:#D12929;}
	.st51{fill:#D64041;}
	.st52{fill:#D53F3F;}
	.st53{fill:#E37778;}
	.st54{fill:#CF191A;}
	.st55{fill:#C50202;}
	.st56{fill:#DC5152;}
	.st57{fill:#E58082;}
	.st58{fill:#D02626;}
	.st59{fill:#D74040;}
	.st60{fill:#DF605F;}
	.st61{fill:#D94444;}
	.st62{fill:#D22C2D;}
	.st63{fill:#E68989;}
	.st64{fill:#C80606;}
	.st65{fill:#D53E3E;}
	.st66{fill:#D12526;}
	.st67{fill:#C70101;}
	.st68{fill:#CC1213;}
	.st69{fill:#CA0B0C;}
	.st70{fill:#CE1616;}
	.st71{fill:#CD0E10;}
	.st72{fill:#C60000;}
	.st73{fill:#FCF6F7;}
	.st74{fill:#D12B2C;}
	.st75{fill:#C90000;}
	.st76{fill:#CE1818;}
	.st77{fill:#CE1313;}
	.st78{fill:#D33738;}
	.st79{fill:#D53D3D;}
	.st80{fill:#EB9FA0;}
	.st81{fill:#F6D7D8;}
	.st82{fill:#DD5C5E;}
	.st83{fill:#F1BCBD;}
	.st84{fill:#EB9D9D;}
	.st85{fill:#F4CDCD;}
	.st86{fill:#F6D8D8;}
	.st87{fill:#F3C6C7;}
	.st88{fill:#F6D4D5;}
	.st89{fill:#F4CFCF;}
	.st90{fill:#ECA2A3;}
	.st91{fill:#CD090A;}
	.st92{fill:#CD0808;}
	.st93{fill:#CD0707;}
</style>
<g>
	<path class="st0" d="M0,150.1C-0.3,66.6,68.4-2.1,153.4,0C240.6,2.2,302.4,74.2,300,154.2c-2.6,84.6-74.1,150.1-158.3,145.3
		C60.1,294.9-0.4,226.9,0,150.1z"/>
	<path class="st1" d="M294.3,150c-0.1,80-65.3,144.1-143.5,144.1c-83.5,0-146-67.5-145.2-145.5C6.5,67.5,74.2,2.1,157,5.9
		C234.7,9.5,294.5,74.3,294.3,150z"/>
	<path class="st2" d="M2.1,140.9c0,6.6,0,13.1,0,19.7c-0.2,0-0.3,0-0.5,0c0-6.5,0-13.1,0-19.6C1.8,140.9,2,140.9,2.1,140.9z"/>
	<path class="st2" d="M4.1,142.8c0,5.2,0,10.4,0,15.6c-0.1,0-0.2,0-0.4,0c0-5.2,0-10.4,0-15.6C3.8,142.8,3.9,142.8,4.1,142.8z"/>
	<path class="st2" d="M159,296.3c-5.2,0-10.5,0-15.7,0c0-0.2,0-0.3,0-0.5c5.2,0,10.5,0,15.7,0C159,296,159,296.2,159,296.3z"/>
	<path class="st2" d="M157.2,298.3c-4.2,0-8.5,0-12.7,0c0-0.1,0-0.3,0-0.4c4.2,0,8.5,0,12.7,0C157.2,298.1,157.2,298.2,157.2,298.3z
		"/>
	<path class="st3" d="M155.5,2c2.5,0,5.1,0,7.6,0c0,0.2,0,0.3,0,0.5c-2.6,0-5.2,0-7.7,0C155.4,2.3,155.5,2.1,155.5,2z"/>
	<ellipse class="st3" cx="140.8" cy="2.3" rx="4.9" ry="0.3"/>
	<ellipse class="st3" cx="297.7" cy="160.2" rx="0.3" ry="4.9"/>
	<path class="st2" d="M157.5,4.2c2.1-0.4,4-0.9,6,0.1C161.2,5.1,159.2,4.7,157.5,4.2z"/>
	<path class="st2" d="M295.5,156.7c0.9,2.9,0.7,4.8,0,6.7C295.5,161.6,295.5,159.8,295.5,156.7z"/>
	<path class="st3" d="M298,135.9c0,1.6,0,3.1,0,6.1C297,139,297,137.4,298,135.9z"/>
	<path class="st2" d="M142.1,4c-1.4,1-3,0.8-4.8,0.5C138.9,3,140.5,4.3,142.1,4z"/>
	<path class="st4" d="M3,136.4c-0.9-2.3-0.7-3.9,0-5.5C3,132.4,3,133.9,3,136.4z"/>
	<path class="st2" d="M295.9,139.6c-0.9-1.1-0.8-2.4-0.5-3.7C297,136.9,295.6,138.3,295.9,139.6z"/>
	<path class="st2" d="M5.2,130.7c0,1.2,0,2.5,0,4.1C3.8,133.4,4.5,132.1,5.2,130.7z"/>
	<path class="st2" d="M167.4,297.1c-1.1,0.6-2.1,0.6-3.4,0C165.3,296.4,166.3,296.3,167.4,297.1z"/>
	<path class="st5" d="M88.2,226.9c-11.4-8.3-19.6-19.3-26-31.6c-20.2-38.4-11.7-87.7,20.3-116.9c0.9-0.8,1.8-1.4,2.7-2.1
		c1.3,2-0.6,3.3-0.9,5c-2.2,3.8-5.7,6.4-8.4,9.8c-11.8,15.1-18.8,31.9-20.4,51.1c-2.2,26.6,5.7,49.7,22.6,70.1
		c3.7,4.5,8.3,8,11.5,12.9C89.5,226,89,226.6,88.2,226.9z"/>
	<path class="st6" d="M211.3,73.6c19.7,15.2,31.5,35.3,35.7,59.5c5,29.1-1.7,55.6-20.2,78.9c-1.4,1.7-3,3.3-4.5,4.9
		c-0.8-0.2-1.4-0.8-1.6-1.6c-0.3-2.3,1.4-3.6,2.7-5.1c30.9-37.2,28.3-91.6-5.8-125.8c-2.8-2.8-6.3-5-7.6-9
		C210,74.4,210.5,73.9,211.3,73.6z"/>
	<path class="st7" d="M211.3,73.6c-0.5,0.4-1,0.9-1.5,1.3c-2.5,0.8-4-1.2-5.7-2.3c-10-6.8-20.8-12-32.6-14.4
		c-30.8-6.3-58.7-0.1-83.2,20c-1.5,1.2-2.7,3.1-5.1,2.6c0.6-1.5,1.2-3,1.9-4.5C117.7,45,178.5,43.7,211.3,73.6z"/>
	<path class="st5" d="M211.6,226.8c-13,11.3-28.2,17.8-45,20.6c-26.1,4.3-50.4-1-72.5-15.7c-0.8-0.5-1.4-1.3-2.2-2
		c0.3-0.8,0.9-1.3,1.7-1.5c6.8,2.3,12.6,6.7,19.2,9.3c31.9,12.7,62.1,9.5,90.8-9.3c1.9-1.3,3.6-3.1,6.1-3.1
		C210.7,225.4,211.3,226,211.6,226.8z"/>
	<path class="st8" d="M92,43.7c2.1,1.2-0.5,3.1,0.9,4.7c1.9-2,4.6-2.6,7-3.7c0.8-0.4,1.8-0.4,2.2,0.3c0.4,0.8-0.1,1.3-1.1,1.7
		c-0.8,0.4-1.3,1.6-2.1,1.9c-3.6,1.5-4.5,3.3-1.3,6.2c0.8,0.7,1.2,2,0.2,2.5c-1.9,0.9-2.5-1.6-4.4-2.4c0,2.8,0,5.2,0,7.6
		c0,0.8-0.1,1.8-1.2,1.7c-0.8-0.1-1.6-0.6-1.7-1.5c-0.1-1.5,0-3,0-4.5c0.1-2.8,0.3-5-3.9-5.1c-3.4-0.1-7.3-9.2-6.4-13.7
		c-2.5-0.4-2.1,2.7-3.8,3.4c-0.9-3.3-0.9-3.5,1.4-5.5c1.2-1,2.1-2,2.6-3.5c0.3-0.8-1.4-3.3,1.3-2.3c1.2,0.5,4.8-1.1,3.4,2.8
		c-0.7,2.1,0,2.2,1.9,1.3c0.9-0.4,2.2,0,3.4,0c0.4,0.9-0.1,1.6-0.6,2.3c-1.1,1.2-0.4,2.1,0.7,2.8C91.2,41.7,91.7,42.7,92,43.7z"/>
	<path class="st9" d="M127.2,37.7c-2.2-0.2-4.4,4.2-5.8,1.3c-1.3-2.5,3.1-2.6,4.7-4.1c1.8-1.7,5.2-2,4.2-5.7
		c-1.9-0.5-2.4,1.5-3.9,1.8c-1.2,0.2-2.4,1-4,1.8c0.1-3.8,3.4-4.8,5.1-6.9c3.2-1.3-0.6-2.6,0-3.9c1-0.8,2.2-1.6,1.5-3
		c-0.5-1-1.7-0.4-2.5,0l0.1,0.1c1.5-0.9,3.2-5.2,4.4,0.3c0.1,0.3,2,0.2,3.1,0.4c0.2,1.6-1.5,1.7-1.9,2.6c-0.4,1-0.4,2.2,1.2,1.6
		c1.3-0.5,2.8-2.1,3.8-0.1c0.9,1.9-0.7,3.3-2,4.5c-0.6,0.6-1,1.2-1.6,1.9c1.7,1.6,2.5-0.1,3.4-0.7c1.1-0.6,2.3-1.4,3.1-0.3
		c0.9,1.4-0.6,1.9-1.6,2.5c-1.1,0.7-2.4,1.1-3.1,2.4c1.3,2,3.7,0.2,6.4,1.9c-5.9,1.4-6.6,5.3-6.5,9.8c0,0.8-0.7,1.6-1.6,1.5
		c-1-0.1-1.3-1-1.2-1.9c0-1.4,0.1-2.9,0.2-4.3c-2.2-0.5-3.8,3.2-5.8,0.9c-1.3-1.5,0.3-2.6,1.6-3.5c0.2-0.3,0.6-0.7,0.1-1
		C128,37.3,127.5,37.5,127.2,37.7z"/>
	<path class="st10" d="M54.3,205.6c1.6,0.9,2.9,1.9,3,3.9c1,6.6-1,9.3-9.1,12.2c-2,0.1-3.9,0.2-5.6-1c-1.6-0.4-1.9-2.1-3-3
		c-1.7-7.1,2-12,9.9-13C51.1,204.7,52.8,204.6,54.3,205.6z"/>
	<path class="st11" d="M63.3,245.6c-1.4-0.6-2-1.7-2.1-3.2c-1.6-0.7-2.1-2.2-2.5-3.7c0.2-7.7,5.5-12.2,11.6-10.1
		c3.6-0.9,4.4,2.2,6,4.1c0.6,0.7,0.6,1.6,0.1,2.3c-2.9,4-6.6,7.4-10.4,10.6C65.2,246.3,64.2,246.4,63.3,245.6z"/>
	<path class="st12" d="M221.2,46.6c1.3,0.7,2.7,1.5,4,2.2c1.3,2.3,0,3.2-2,3.7c-4.3-5.1-10.2-6.8-16.4-7.7c-1.1-0.2-2.9,2.2-3.3-0.3
		c-0.2-1.5,1.7-4.3,3.2-3.7c5.1,1.9,6.1-2.5,8.6-4.7c2.8-2.5,7.6-2,9.8,1.2c0.3,0.5,0.2,1.4,1,1.2c1.9-0.4,3.9,0,3.8,1.8
		c-0.1,1.9-1.5,3.8-3.8,4.5c-1.4,0.5-2.8,0.2-4.1,0.3c-0.4,0-0.9-0.2-1.2-0.4c-0.9-1.4-1.8-2.8-3.4-3.4c-1-0.7-1.6-0.4-1.9,0.8
		C216.9,44.5,220.2,44.1,221.2,46.6z"/>
	<path class="st13" d="M181.2,31.2c-8.2-0.4-10.3,10.1-18.9,9.6c1.6-2.4,4.3-2.8,5.9-4.6c1.1-1.2,3.9-2.2,0.8-4.5
		c-1.5-1.1,0-2.4,1.1-2.2c3.6,0.5,4.4-2.1,5.7-4.4c0.5-1,1.1-2.1,2-2.8c0.7-0.6,1.4-2.2,2.8-0.9c1.1,1,0.6,2.1-0.1,3.1
		c-1,1.3-1.9,2.6-2.9,3.9C178.3,29.9,180.7,28.3,181.2,31.2z"/>
	<path class="st14" d="M212.1,56.8c-2.2-0.9-3.2-1.2-4-1.8c-0.8-0.5-1.8-1.1-1.1-2.4c0.5-0.9,1.3-0.9,2.2-0.8
		c0.8,0.2,1.6,0.4,2.4,0.7c1.1,0.3,2.2,0.1,2.3-1.1c0.1-0.9-1-1.1-1.7-1.5c-1-0.5-3.4,0.4-2.7-1.7c0.5-1.4,2.2-0.3,3.4,0.3
		c2,1,6-0.1,4.8,4c-1.8,6.1-6.9,9.6-10.7,8c-1.4-0.6-2.1-1.6-1.5-3.2c0.5-1.3,1.1-1.8,2.5-0.9C208.7,57,209.8,56.7,212.1,56.8z"/>
	<path class="st15" d="M43.9,175.8c-5.6,7.8-9.9,14.8-14.3,22.3c-2.3-3-1-4.7,0.2-6.5c2.4-3.6,5.9-6.8,6.9-10.7
		C37.6,176.9,40,177.1,43.9,175.8z"/>
	<path class="st16" d="M249.5,105.3c2.2-5.1,5.1-10,6.5-15.4c0.7-3,1.3-5.5,3.9-7.4c0.9,1.3,2,2.6,0.8,4.6
		c-3.7,6.1-4.3,13.9-9.5,19.2C250.5,105.9,250,105.6,249.5,105.3z"/>
	<path class="st17" d="M270.5,195.7c-2.8-4.6-5.1-4.8-7.8-2.1c-0.8,0.8-1.9,1.4-2.8,2.1c-2.4,1.7-4.9,3.1-7.7,1.1
		c-2.8-2-2.4-4.8-1.7-7.8c1.7,6.5,3.6,7.1,9.2,3c4.7-3.4,8.2-3.3,10.5,0.3C270.5,192.8,270.4,193.6,270.5,195.7z"/>
	<path class="st18" d="M266.3,169.7c-1.9-1.4-4.5-2-6.4-1.7c-3.6,0.6-2.6-1.3-2.4-3.1c0.5-0.8,1.2-0.8,1.9-0.4c4.5,1,9,2.7,13.5,3
		c4.8,0.3,5,2.1,3.4,5.6c-0.3,0.7-0.3,1.6-1.1,2.1c-1.6-3.2-4.7-3.9-7.8-4.6C266.9,170.3,266.6,170,266.3,169.7z"/>
	<path class="st19" d="M235.5,216.9c0.8-1.1,1.7-2.4,2.7-3.8c3,4.7,7.9,6.8,11.8,10.1c0.9,0.7,2,1.2,2.8,2c1.2,0.9,0.1,1.7-0.3,2.5
		c-0.8,1.5-1.2,0.5-2.1-0.2C245.6,223.7,241.1,219.6,235.5,216.9z"/>
	<path class="st20" d="M32.6,132.6c2.8-0.5,5.4,1.9,8.5,0.2c-0.1,2.9,0.6,5-4.1,3.5c-5-1.6-10.5-3-16-2.6c0.6-3.9,0.6-3.9,4.5-2.9
		c1.6,0.4,3.2,0.6,4.8,0.9C31.4,131,31.8,132.3,32.6,132.6z"/>
	<path class="st21" d="M244,61.8c1,1.1,2,2.2,3,3.3c-6.6,2.5-13.4,9.6-13.8,14.3c-2.8-3.4-2.5-5.7,1.3-9.1
		C237.5,67.5,241.2,65.4,244,61.8z"/>
	<path class="st15" d="M51.3,73.7c-1.8-1-1.2-3.2-2.2-5.2c6.9,1.8,13.9,3.7,20.8,5.5c-1.2,3.1-2.7,3.9-5.3,1.7c-1.1-1-2.7-1-4.3-0.9
		C57.2,75.2,54.4,72.8,51.3,73.7z"/>
	<path class="st14" d="M32.3,124.7c-0.6-4.6-4.7-2.8-7.1-3.3c-1.8-0.3-2.2-0.5-1.8-2.1c0.4-1.2,0.3-2.1,2.5-1.3
		c4.5,1.5,9.3,2.1,14,2.9c3.4,0.6,3.4,0.5,2.9,4.4c-2.2-1.7-4.9-1.6-7.4-2.3c-1.5-0.5-2.1,0.3-2.3,1.7
		C32.9,125.2,32.6,125.2,32.3,124.7z"/>
	<path class="st22" d="M270.9,106.4c1,2.2,2.2,3.8-2.1,4.7c-5.1,1.1-10.5,2.5-15.1,5.6c-1.6-3.3-1.5-3.1,1.8-4.4
		C260.5,110.3,266,109.5,270.9,106.4z"/>
	<path class="st15" d="M263.3,210.7c-0.6,1-0.9,2.2-1.6,2.7c-0.7,0.5-1.4-0.5-2-0.9c-4.4-2.5-8.9-5-13.3-7.5
		c-0.8-0.4-2.8,0.2-1.8-1.9c0.7-1.5,1.6-1.7,3.2-0.8c4.9,2.6,9.4,6.1,14.9,7.5C262.8,209.9,263,210.4,263.3,210.7z"/>
	<path class="st23" d="M63.3,245.6c6-2.6,9.3-7.9,13.1-12.8c2.2-0.8,2.6,1.4,3.4,1.8c-4.6,4.8-9,9.5-13.6,14.3
		C65.4,248.5,64,247.5,63.3,245.6z"/>
	<path class="st13" d="M28.5,102.6c0.9-1.6,1.6-2.9,2-3.7c5.9,3,11.2,7.2,19,6.9c-3.8,4-7.3,2.1-10.7,0.7
		C35.6,105.1,32.6,102.7,28.5,102.6z"/>
	<path class="st24" d="M273.1,123.5c-3.3,2.1-6.5,4.1-9.8,6.3c-2.6,1.7-0.1,1.6,0.8,2.1c0.3,0.2,0.4,0.4,0.3,0.6
		c-0.1,0.2-0.2,0.3-0.3,0.3c-2.3,0-4.6,0.1-7-1.6c5.2-5.2,12.3-7.8,17.7-12.9c0.1,1.1,0.3,2.1,0.4,3.2
		C275.9,123.6,273.9,122.9,273.1,123.5z"/>
	<path class="st25" d="M277.1,148.8c-5.9,0.1-11.9-0.9-17.8,0.1c-0.6-1.5-1.6-3.1,1.2-3.4c5,0,10,0.5,14.8-0.1
		c3.5-0.4,3.4,0.9,3,3.3C277.9,149.2,277.5,149.2,277.1,148.8z"/>
	<path class="st26" d="M228.4,242.6c-0.1-2.6-0.8-4.9-2.7-6.8c0.5-1,1.2-1.5,2.3-1.1c4.3,3.2,9.6,3,14.8,4.4
		c-1.8,2.3-3.3,4.6-6.6,1.7c-0.9-0.8-2.6-0.6-3.8-1.1c-3.3-1.3-3.3,0.7-3.3,3C228.9,243,228.7,243,228.4,242.6z"/>
	<path class="st27" d="M267.3,169.7c3.2,1,8.8-1.5,7.9,5.4c0,0,0.1,0,0.1,0c-3.3,5-5.9,4.9-8.6-0.5
		C265.7,172.8,266.1,171.2,267.3,169.7z"/>
	<path class="st22" d="M70.4,228.7c-6.7,0.1-10,3.3-10.9,10.7c0.4,1-0.1,1.3-1,1.2c-2.9-7.8,2.4-15.1,10.1-14
		C69.9,226.8,71,227,70.4,228.7z"/>
	<path class="st28" d="M135.5,263.6c0.7,0.5,0.9,1.2,0.8,2c2.6,2.9,1.8,5.3-0.9,7.5c-1.1,0.1-2.2,0.4-3.3,0
		c-4.2-2.6-2.1-5.8-0.7-8.8c0.1-0.3,0.2-0.5,0.5-0.6C133,263.6,134.2,263.3,135.5,263.6z"/>
	<path class="st13" d="M49.3,205.5c-6.6,1.6-10.1,6-9.8,12.2c-3.4-5.8,0.3-13.5,6.9-14.1c1.9-0.2,3.9,0.1,5.9,0.2
		C52.4,206.3,50,204.4,49.3,205.5z"/>
	<path class="st29" d="M48.3,220.7c4.6-2.5,9.5-4.7,9-11.2c3,5.8,0.5,10.8-6.7,13.2c-1.9,0.6-3.7,0.5-5.6,0
		c-0.8-0.3-2.3,0.6-2.4-1.1C44.3,220.4,46.5,221.8,48.3,220.7z"/>
	<path class="st30" d="M267.3,169.7c-0.1,1.7-0.2,3.3-0.3,5c-0.4,0.5-0.8,0.5-1.3,0.1c-4,0.5-7,3.4-10.8,4.8
		c-0.5-2.4,0.8-3.5,2.7-4.6c2.9-1.6,6.7-2.1,8.6-5.4C266.6,169.7,266.9,169.7,267.3,169.7z"/>
	<path class="st31" d="M27.3,166.5c-2.8-0.5-4.8-2.1-6.1-4.7c-0.5-1.1,0.1-1.2,0.9-1c6.1,4.5,10.9,4.2,16.8-1
		c0.1,3.8-0.7,4.8-5.6,6.7c-0.3-0.3-0.7-0.5-1.1-0.7c-1.3-0.2-2.5-0.2-3.8,0C28,166,27.7,166.2,27.3,166.5z"/>
	<path class="st32" d="M51.3,73.7c0.1-1.2,0.4-2.4,2-1.7c2.3,1,5.1,0.9,7,2.7c-1.2,1.6-2.4,3.3-3.6,4.9c-0.7,0.5-1.1,0.4-1.4-0.4
		C53.9,77.4,52.6,75.6,51.3,73.7z"/>
	<path class="st33" d="M91.5,254c0,2.1-1,3.5-3.2,3.6c-2.3,0.1-3.4-1.3-3.6-3.3c-0.1-2,1-3.6,3.2-3.7
		C90.1,250.6,91.3,251.8,91.5,254z"/>
	<path class="st15" d="M211.6,226.8c-0.5-0.5-1-0.9-1.4-1.4c1.9-5.1,6.4-7.4,10.7-9.9c0.5,0.4,1,0.9,1.5,1.3
		C219.2,220.6,215.8,224.2,211.6,226.8z"/>
	<path class="st15" d="M209.1,253.5c1.5,0.2,3.5-0.4,3.5,2.2c-0.1,2.3-1.1,3.1-3.5,3.1c-2.2,0-3-0.9-3.2-2.8
		C205.7,253.5,207.2,253.3,209.1,253.5z"/>
	<path class="st34" d="M192.6,272c-3.3-4.5-4.1-10-7.9-13.6c-0.5-0.5,0.2-0.7,0.6-0.9c0.6-0.2,1.2-0.7,1.7-0.6
		C188.1,257.3,192.9,269.7,192.6,272z"/>
	<path class="st35" d="M265.7,174.8c0.4,0,0.8-0.1,1.3-0.1c2.5,4.4,5.3,3.6,8.2,0.4c0,3.2-1.4,5.5-4.8,5.5
		C266.7,180.7,265.9,177.8,265.7,174.8z"/>
	<path class="st36" d="M159.3,265.7c-0.2,1.2-0.2,2.1,1.4,2.6c6.2,2.3,6.3,2.5,5,9.2c0.1-5-2.3-7.1-6.9-7.3
		c-1.8-0.1-1.7-0.6,0.6-4.4L159.3,265.7z"/>
	<path class="st37" d="M183.1,44.6c-3.9,1-6.3-0.5-8.1-3.5c-0.6-0.9-0.3-1.4,0.2-2c0.7-0.7,1.5-0.9,2,0
		C178.6,41.4,181.9,41.6,183.1,44.6z"/>
	<path class="st38" d="M39.9,151.8c-4-1.5-7.1-1-10.2,0.3c-0.3-1.4-0.5-4.3,0.5-3.9C33.2,149.6,37.7,145.8,39.9,151.8z"/>
	<path class="st39" d="M135.4,272.7c1.5-2.2,2.2-4.5,0.9-7.1c3.9,0.4,2.1,3.3,2,5.2c0,3.7-1.8,6.3-5.5,7.8c0.1-2.2,2.9-2.7,2.3-4.8
		C134.7,273.3,134.8,272.9,135.4,272.7z"/>
	<path class="st26" d="M228.1,234.7c-0.8,0.4-1.6,0.8-2.3,1.1c-1.8-1.3-2.8-3.6-5.8-3.3c2-1.5,3.4-2.6,4.9-3.8
		C224.6,231.6,227.2,232.6,228.1,234.7z"/>
	<path class="st25" d="M127.3,21.9c0.7,0.7,1.4,1.2,2,2c0.5,0.7,1.3,1.7,0.2,2.4c-0.4,0.3-1.4-0.3-2.2-0.5c-0.5-0.5,2.2-1.7-0.2-1.7
		c-1.5,0-3.7,3.2-4.4,0.8C121.9,22.2,125.6,22.8,127.3,21.9z"/>
	<path class="st36" d="M108.1,261.6c-0.6,2.9-3.4,4.8-3.8,7.8c-0.3,1.9-1.3,0.7-2,0.4c-1.4-0.4-0.5-1-0.1-1.6c1.7-2.6,3.3-5.2,5-7.8
		C107.8,260.5,107.9,261.1,108.1,261.6z"/>
	<path class="st40" d="M131.3,264.2c0.3,2.8-2.4,5.9,0.9,8.5c0.3,0.2,0.4,0.4,0.3,0.6c-0.1,0.2-0.2,0.3-0.2,0.3
		C127.4,271.5,127.1,268.5,131.3,264.2z"/>
	<path class="st41" d="M221.2,46.6c-2.2-0.9-4.5-1.8-6.7-2.7c-1.4-0.6-2-1.2-0.4-2.3c0.9-0.5,1.7-0.8,2.7-0.4
		c1.7,0.8,3.2,1.8,4.5,3.3l-0.1,0.4c0.4,0.2,0.5,0.3,0.4,0.5c-0.1,0.2-0.2,0.3-0.4,0.3C221.2,46,221.2,46.3,221.2,46.6z"/>
	<path class="st42" d="M89.3,37.9c0.3-0.7,0.7-1.3,1-2c2.7,2.1,2.1,5,1.7,7.8c-0.9-0.5-1.5-1.2-1.8-2.2
		C89.3,40.5,88.7,39.4,89.3,37.9z"/>
	<path class="st24" d="M93.4,228.3c-0.5,0.5-0.9,0.9-1.4,1.4c-1.6-0.5-2.9-1.5-3.8-2.9c0.5-0.5,0.9-0.9,1.4-1.4
		C92.1,224.8,93.1,226.1,93.4,228.3z"/>
	<path class="st43" d="M228.4,242.6c0.2,0,0.5,0,0.7,0c2,1.5,0.2,4.6,2.5,6.2c0.9,0.6-0.5,1.3-1.1,1.5c-1.2,0.4-1.3-0.5-1.4-1.3
		C229,246.9,228.7,244.7,228.4,242.6z"/>
	<path class="st44" d="M260.5,145.5c-1.4,0.8-1.2,2.1-1.2,3.4c-0.1,1.9-0.1,3.9-0.2,5.8c-0.2,0.4-0.5,0.4-0.8,0c0-2.9-0.2-5.9,0-8.8
		C258.5,143,259.6,144.7,260.5,145.5z"/>
	<path class="st45" d="M273.8,135.2c1.7-0.8,4.6-4,4.3,1.3C276.6,136.1,275.2,135.7,273.8,135.2z"/>
	<path class="st46" d="M20.2,153.6c-0.2-2.6-0.6-5.3,3.8-3.7c-0.5,1.8-2.9,2.5-2.8,4.6C20.3,154.8,19.8,154.6,20.2,153.6z"/>
	<path class="st47" d="M24.7,185.1c-0.5-1.6-0.9-2.8-1.5-4.6c1.5,0.3,2.8,0.6,4.4,1C26.6,182.7,25.8,183.7,24.7,185.1z"/>
	<path class="st48" d="M262.7,200.3c1.7-0.4,3.2-1.7,4.9-0.9c0.3,0.1,0.4,1.6,0.2,1.7C265.9,202.2,264.5,200,262.7,200.3z"/>
	<path class="st49" d="M32.3,124.7c0.3,0,0.6,0,0.8,0c-0.2,2.6-1.6,5.2-0.6,7.9c-0.8-0.3-1.6-0.6-2.4-0.9
		C31.8,129.6,30.6,126.7,32.3,124.7z"/>
	<path class="st50" d="M258.1,185.1c-1.8,0.1-3.3,2.3-5.2,1c-0.2-0.1,0-1.1,0.3-1.4C254.9,182.8,256.3,185.3,258.1,185.1z"/>
	<path class="st51" d="M36.6,86.3c0.8,1.2,1.1,2.7,2.8,3.6C34.7,89.9,34.7,89.9,36.6,86.3z"/>
	<path class="st52" d="M265.9,94.4c3.4,3.7,0.5,3.8-2.6,4.3C264.3,97,265.1,95.6,265.9,94.4z"/>
	<path class="st53" d="M51.1,97.9c1.8,1.7,1.4,3.2-0.4,4.7C49.8,100.9,50.9,99.4,51.1,97.9z"/>
	<path class="st54" d="M264.2,132.8c0-0.3,0-0.6,0-0.9c2,0.4,3.9,0.8,5.9,1.3C268,133.6,266,134.4,264.2,132.8z"/>
	<path class="st55" d="M159.4,265.9c0.1-4.1,2.9-1.5,5.2-2.4c-1.9,2.3-3.8,1.8-5.4,2.3C159.3,265.7,159.4,265.9,159.4,265.9z"/>
	<path class="st56" d="M277.1,148.8c0.4,0,0.8,0,1.2,0c0.3,2.6,0.5,5.1-0.8,8.9C277.3,153.8,277.2,151.3,277.1,148.8z"/>
	<path class="st57" d="M20.2,153.6c0.3,0.3,0.6,0.6,0.9,0.9c0,1.1,0,2.2,0,3.3c-0.3,0.4-0.3,1.1-1,1.1
		C18.8,157.1,18.9,155.3,20.2,153.6z"/>
	<path class="st58" d="M45.2,189.5c0.3-0.9,1.6-1.5,1.7-1.2c0.4,1.2,1.5,2.3,0.7,3.7c0,0-0.8-0.4-1.3-0.6
		C45.5,191.1,44.7,190.7,45.2,189.5z"/>
	<path class="st59" d="M45.2,189.5c0.4,0.6,0.7,1.3,1.1,1.9c-1.8,0.4-3.7,0.7-5.7,1.2C41.4,190,44.1,190.9,45.2,189.5z"/>
	<path class="st60" d="M270.1,155.8c0.4,0.3,0.9,0.5,1.2,0.8c0.8,0.9,0,1-0.6,1c-1.4,0-2.9,0-4.3-0.1c-0.1,0-0.3-0.2-0.3-0.3
		c0-0.7,0.5-0.6,1-0.5C267.9,155.9,269.1,156.2,270.1,155.8z"/>
	<path class="st61" d="M236.2,82.7c2,0.2,3.3,0.3,5.3,0.5C239.4,85.2,238,84.9,236.2,82.7z"/>
	<path class="st62" d="M39.3,193.2c-1.4,0.4-2.8,0.9-4.5,1.4c0.8-2.6,2.8-1.7,4-2.6C38.9,192.4,39.1,192.8,39.3,193.2z"/>
	<path class="st63" d="M274.3,159.4c1.1-1.9,2.2-2,3.2-1.4c0.2,0.1,0.3,1,0.2,1.1C276.8,160,275.7,159.3,274.3,159.4z"/>
	<path class="st64" d="M245.8,91.6c-0.8,1-0.9,2.7-2.5,2.5c-0.3,0-1-1.2-0.8-1.6C243.1,91.1,244.6,91.8,245.8,91.6z"/>
	<path class="st65" d="M252.4,75.7c-0.4,0-1.3,0.1-1-0.9c0.3-0.7,0.7-1.7,1.3-1.9c0.8-0.2,1.5,0.7,1.5,1.5
		C254.2,75.3,253.4,75.6,252.4,75.7z"/>
	<path class="st66" d="M48.3,220.7c-1.7,1.7-3.8,0.7-5.8,0.9c-0.1-0.3-0.1-0.6,0-0.9C44.5,220.7,46.4,220.7,48.3,220.7z"/>
	<path class="st67" d="M223.2,52.6c1.1-1,2.3-2,2-3.7c2,0.5,1.4,2,1,3.1C225.7,53.4,224.3,52.7,223.2,52.6z"/>
	<path class="st68" d="M245.3,231.9c1.2-0.4,2.3-0.7,3.4,0c0.1,0.1-0.1,0.9-0.3,1.1C246.7,234.4,246.1,232.9,245.3,231.9z"/>
	<path class="st69" d="M270.1,155.8c-0.7,1.3-2,0.6-3,0.9c0.5-1.3,1.1-2.5,1.7-4C269.3,153.8,269.7,154.8,270.1,155.8z"/>
	<path class="st70" d="M108.4,257.6c0-0.7-0.8-1.7,0.6-2c0.6-0.1,1.8,0.1,1.8,0.2c0.2,1.2-0.4,2.2-1.4,2.9
		C108.8,258.7,108.7,258.1,108.4,257.6z"/>
	<path class="st71" d="M258.4,154.7c0.3,0,0.5,0,0.8,0c0.2,0.5,0.3,1,0.5,1.4c0.4,0.9,1.2,2.1-0.1,2.4c-2.1,0.5-0.9-1.5-1.2-2.4
		C258.1,155.7,258.3,155.2,258.4,154.7z"/>
	<path class="st72" d="M108.4,257.6c0.3,0.4,0.7,0.8,1,1.2c-0.4,0.9-0.9,1.8-1.3,2.7c-0.3-0.4-0.6-0.8-1-1.2
		C107.6,259.5,108,258.5,108.4,257.6z"/>
	<path class="st73" d="M127.2,37.7c0.9-1.2,2.1-1.8,4.3-2.1c-1.1,1.6-1.6,2.7-3.2,2.9C127.9,38.3,127.5,38,127.2,37.7z"/>
	<path class="st74" d="M55.3,79.3c0.5,0.1,1,0.3,1.4,0.4c-0.3,1.1-0.1,2.2,1,3.8C55.1,82.3,54.3,81.2,55.3,79.3z"/>
	<path class="st75" d="M27.3,166.5c0-0.3,0-0.5,0-0.8c2-0.8,4-0.8,6,0c0,0.3,0,0.5,0,0.8C31.3,166.9,29.3,167,27.3,166.5z"/>
	<path class="st76" d="M126.3,19c-1.1,1.5-2.4,1.2-3.8,0.5c-0.1,0,0-0.6,0.1-0.8c1.4-1.6,2.5-0.3,3.7,0.4
		C126.4,19.1,126.3,19,126.3,19z"/>
	<path class="st76" d="M49.3,205.5c1-0.6,2-1.1,3-1.7c1.2,0,1.8,0.7,2,1.9C52.6,205.6,51,205.6,49.3,205.5z"/>
	<path class="st77" d="M157.9,279.2c2.1-1.1,2.7,0.6,3.9,0.8C160.4,280.5,158.9,281.4,157.9,279.2z"/>
	<path class="st78" d="M59,88.1c-0.9,0-0.9-0.7-1.2-1.2c-0.5-1,0.1-1.5,1-1.6c0.5,0,1,0.6,1.5,0.9C59.9,86.9,59.4,87.5,59,88.1z"/>
	<path class="st66" d="M45,222.8c1.9,0,3.7,0,5.6,0C48.7,224,46.9,224.1,45,222.8z"/>
	<path class="st79" d="M20.1,158.9c0.3-0.4,0.7-0.7,1-1.1c0.4,1,0.7,2,1.1,2.9c-0.3,0.3-0.6,0.7-0.9,1
		C20.2,161.1,20.2,160,20.1,158.9z"/>
	<path class="st80" d="M259.3,164.5c-0.6,0.1-1.3,0.3-1.9,0.4c-0.3-1.1-0.2-2.3,1-2.4C259.3,162.4,259.2,163.7,259.3,164.5z"/>
	<path class="st81" d="M221.2,45.7c0-0.3,0-0.6-0.1-0.8c1.7,0,3.4,0,5.1,0C224.7,46.3,222.9,45.8,221.2,45.7z"/>
	<path class="st59" d="M58.5,240.6c0.3-0.4,0.7-0.8,1-1.2c0.6,1,1.1,2,1.7,3.1C59.2,243.4,59,241.8,58.5,240.6z"/>
	<path class="st82" d="M273.1,123.5c0.7-0.7,1.5-1.3,2.2-2C278,126,273.8,122.8,273.1,123.5z"/>
	<path class="st83" d="M135.5,263.6c-1.2,0.6-2.4,1.4-3.7,0C133,262.7,134.2,262.2,135.5,263.6z"/>
	<path class="st84" d="M132.3,273.6c0.1-0.3,0-0.6-0.1-0.9c1.1,0,2.1,0,3.2,0c-0.1,0.4-0.2,0.7-0.3,1.1
		C134.1,273.8,133.1,275.1,132.3,273.6z"/>
	<path class="st1" d="M93.4,228.3c-1-1.3-2.3-2.2-3.8-2.8c-23.2-19.8-35.8-44.8-35.9-75.3c-0.1-25.4,9.1-47.6,26.7-66.2
		c1-1.1,2-2.2,3-3.3c14-12.5,29.8-21.5,48.4-24.8c28-5,53.6,0.9,76.5,18c0.5,0.4,1.1,0.7,1.7,1c14.4,12.5,25.9,27.1,31.4,45.7
		c10.5,34.8,4.2,66.1-20,93.5c-0.3,0.3-0.3,0.9-0.5,1.4c-3.6,3.3-7.1,6.6-10.7,9.9c-13,9.5-27,16.5-43,19.4
		c-22.2,4-43.2,0.5-63-10.1C100.5,232.8,96.4,231.4,93.4,228.3z"/>
	<path class="st85" d="M86.2,45.8c0.1,0.1,0.1,0.4,0.2,0.4c1.4,0.6,2.5,1.3,2,3.1c-0.2,0.7-0.6,1.3-1.3,1.1
		c-1.6-0.5-2.2-1.8-1.9-3.4C84.7,46,85.3,45.8,86.2,45.8z"/>
	<path class="st86" d="M89.3,37.9c0.8,1.1,1.2,2.3,1,3.7c-1.7,0.1-2.8-0.5-2.9-2.4C87.3,37.7,88.2,37.7,89.3,37.9z"/>
	<path class="st87" d="M81.7,42.6c-0.6-1.6-0.8-2.9,0.5-3.9c0.1-0.1,1,0.2,1.1,0.5C84,40.8,83.4,41.9,81.7,42.6z"/>
	<path class="st88" d="M86.2,45.8c-0.3,0.4-0.6,0.8-1,1.3c-2.2-0.4-1.5-1.7-0.9-2.9c0.3-0.6,0.9-1.2,1.5-0.9
		C86.8,43.8,86.7,44.8,86.2,45.8z"/>
	<path class="st22" d="M221.3,44.5c-1.3-1.1-4.1,0.1-4.2-2.8c-0.3-0.4-0.2-0.8,0.3-1C220.1,40.6,221.3,41.9,221.3,44.5z"/>
	<path class="st89" d="M226.1,42.8c-0.8-0.1-0.9-0.8-0.8-1.4c0-0.7,0.6-1.3,1.2-1.2c0.8,0.1,1.5,0.6,1.1,1.7
		C227.3,42.4,226.9,42.9,226.1,42.8z"/>
	<path class="st90" d="M217.4,40.7c-0.1,0.3-0.2,0.7-0.3,1c-1,0-2-0.1-3-0.1C215.2,41.5,215.2,37.1,217.4,40.7z"/>
	<path class="st91" d="M33.3,165.7c-2,0-4,0-6,0C29.3,164.1,31.3,164.2,33.3,165.7z"/>
	<path class="st0" d="M216.9,112.6c1.2-1.6,2.2-3.4,4.7-2.6c2.4,0.8,4,2.3,4.1,5c1,15.5,0.2,30.9-7.2,44.7
		c-6.1,11.4-16.7,18.6-28.6,23.7c-1.5,0.6-3.1,1.2-4.7,1.7c-2.4,0.8-3,2.1-2.1,4.5c5.2,13.3,3,26.8,0.8,40.3
		c-0.2,1.1-0.3,2.4-0.9,3.4c-1.2,2.1-2.3,4.9-5.5,4.1c-3.2-0.9-3.6-3.5-2.8-6.4c2.3-8.4,2.5-17.1,3-25.7c0.4-6-1.8-11.7-4.8-17
		c-0.5-0.9-1.3-1.6-2.4-1.2c-4.7,1.5-9.6,0.2-14.3,1.5c-2.5,0.7-2.5,1.4-1.6,3.2c5.7,11.9,6.1,24.2,2.5,36.8c-0.9,3-2.3,5.8-3.5,8.7
		c-1,2.5-3.2,2.9-5.4,2.4c-2.3-0.6-2.7-2.7-2.4-4.8c0.6-4.8,2.8-9.1,3.7-13.9c1.6-8.6-0.4-16.3-3.3-24.3c-2-5.4-3.7-9.1-10.7-8.3
		c-3.8,0.4-7.9-1.8-12.3-2.9c-0.1,3.4,1.2,6.1,2.5,8.7c6.5,13.3,2.9,26.3-1,39.2c-1,3.3-4.1,4.7-7.2,3.6c-3.5-1.3-2.7-4.8-1.8-7.4
		c1.8-5.2,3.2-10.4,4.1-15.8c0.9-5.9,0.1-11.3-2.9-16.3c-2.2-3.6-3.4-7.7-4.2-11.6c-0.7-3.4-2.5-4.9-5-6.1
		c-19.9-9.3-26.9-27.2-31.2-46.9c-1-4.7-1.4-9.5-2.1-14.3c-0.4-2.5,0.1-4.7,1.5-6.7c1.2-1.8,3.2-2.4,5.3-2.1
		c2.7,0.5,3.6,2.8,4.1,5.1c0.5,2.4,0.8,5,0.6,7.4c-0.5,6,2.6,7.1,7.8,6.9c4.6-0.1,9.3,0.7,13.9,0.4c2.8-0.2,4.6-0.7,2.9-4.1
		c-4-8.1-1.3-15.2,2.8-22.5c5.4-9.6,6.6-19.8,1.1-29.9c-1.6-3-1.5-5.1,1.4-6.6c3-1.6,5.9-0.7,7.2,2.2c4.2,9.3,6.2,18.9,2.1,28.9
		c-2,4.9-3.9,9.9-6,14.7c-2.7,6.1,0.5,11.3,2.3,16.7c0.1,0.3,0.7,0.7,1.1,0.7c7.8,0,15.5,0,23.3,0c0-0.3,0.2-0.7,0.1-0.9
		c-7.7-9.9-5.9-20.1-1-30.4c4.7-9.9,5.6-19.7-0.1-29.5c-1.8-3-2.2-6.1,1.2-7.6c3.4-1.6,5.6,1,7.1,3.9c5.5,10.9,5,22.1,1.7,33.4
		c-0.5,1.8-0.8,3.6-1.7,5.2c-5.3,9.2-2.6,17,3.9,24.4c0.7,0.7,1,1.7,2.2,1.8c4.5,0.3,9,0.6,13.4,0.9c2,0.1,3.1-0.8,1.7-2.7
		c-9.4-13.1-3.9-25.9,0.6-38.8c2.1-5.9,2.2-12.1-0.5-18c-1.3-2.9-2.7-6,0.8-7.8c3.7-1.9,6,1.3,7.4,4c3.3,6.8,3.2,14.1,2,21.4
		c-1.1,6.9-5.5,12.6-6,19.9c-0.6,8.5,2.4,15.5,7.4,21.5c3,3.5,8.5,1.4,12.8,1.1c2.5-0.2,4.9-0.4,7.4,0c7.7,1.2,11.7-2.8,10.4-10.6
		c-0.4-2.3-0.7-4.6-0.2-6.9c1.2-0.3,1.2,0.5,1.3,1.3c0,0.4,0,0.9,0.1,1.3c0-0.4-0.1-0.8,0-1.2C217.8,114.2,217.4,113.4,216.9,112.6z
		"/>
	<path class="st2" d="M216.9,112.6c2.1,1.2,1,3.2,1,5c-1.2-1-0.2-2.9-1.6-3.8C216.2,113.2,216.3,112.8,216.9,112.6z"/>
	<path class="st1" d="M179.4,169.5c0.3-1.9,0.8-4.2,2-6.2c4-6.5,5.9-13.6,5.9-21.2c0-2.4,0-3.7,3.6-3.1c4.4,0.8,9.2-0.2,13.8-0.5
		c11.4-0.7,11.1-0.4,8.1,10.7c-3.8,14-13.4,21.6-26.1,26.3C180.2,177.9,179.3,176.9,179.4,169.5z"/>
	<path class="st10" d="M127.6,137.2c7.3,1.9,13.4,0.5,19.5,1.1c2.3,0.2,3,1,3.3,3.3c1.1,6.7,0.2,12.8-3.2,18.7
		c-2.8,4.8-4.6,9.9-4.8,15.5c-0.1,2.9-1.4,3.8-4.1,3.3c-4.3-0.9-8.7-1.8-13.1-2.5c-3.2-0.5-3.2-1.9-1.9-4.3c3.2-5.8,6-11.8,7-18.5
		C131.2,148.5,130.6,143.3,127.6,137.2z"/>
	<path class="st1" d="M103.1,137.8c3,0,6,0.4,9-0.1c5.3-0.8,6.9,2.1,8,6.4c2.2,8.5,0.3,16-4.3,23.1c-1.4,2.2-2.9,3.2-5.7,2
		c-12.9-5.5-18.5-16.4-21.6-29.1c-0.5-2.2,1-2.5,2.6-2.5C95.1,137.7,99.1,137.7,103.1,137.8C103.1,137.7,103.1,137.8,103.1,137.8z"
		/>
	<path class="st1" d="M161.2,178.6c-11.4,0.3-11.6,0.1-6.9-10.5c3.6-8,7.2-16.1,6-25.2c-0.4-2.8,0.7-3.9,3.4-4
		c3.7,0,7.3-0.1,10.9-0.3c2.9-0.2,3.9,1,3.8,3.7c-0.2,4.3-0.5,8.8-2.7,12.5c-3.9,6.6-6.1,13.5-5.5,21.2c0.2,2.2-1,2.6-2.6,2.6
		C165.5,178.6,163.4,178.6,161.2,178.6z"/>
	<path class="st3" d="M148.1,136.5c-6.2,0-12.5,0-18.7,0c0-0.2,0-0.3,0-0.5c6.2,0,12.4,0,18.6,0C148,136.1,148.1,136.3,148.1,136.5z
		"/>
	<path class="st3" d="M92.6,131c5.6,0,11.1,0,16.7,0c0,0.2,0,0.3,0,0.5c-5.6,0-11.2,0-16.7,0C92.5,131.3,92.5,131.1,92.6,131z"/>
	<path class="st4" d="M157.5,219.6c0-3.9,0-7.8,0-11.7c0.1,0,0.3,0,0.4,0c0,3.9,0,7.8,0,11.7C157.8,219.6,157.6,219.6,157.5,219.6z"
		/>
	<ellipse class="st3" cx="169.8" cy="132.2" rx="6.2" ry="0.3"/>
	<path class="st2" d="M131,131.5c-2.9,0-5.7,0-8.6,0c0-0.2,0-0.3,0-0.5c2.9,0,5.7,0,8.6,0C131.1,131.2,131,131.3,131,131.5z"/>
	<path class="st3" d="M203.4,132.9c2.9,0,5.7,0,8.6,0c0,0.2,0,0.3,0,0.5c-2.8,0-5.7,0-8.5,0C203.5,133.2,203.4,133,203.4,132.9z"/>
	<ellipse class="st3" cx="179.7" cy="206.1" rx="0.3" ry="6.2"/>
	<ellipse class="st4" cx="197.7" cy="137.2" rx="6.2" ry="0.3"/>
	<path class="st3" d="M184.1,213.9c0,2.5,0,5.1,0,7.6c-0.2,0-0.3,0-0.5,0c0-2.5,0-5.1,0-7.6C183.7,213.9,183.9,213.9,184.1,213.9z"
		/>
	<ellipse class="st3" cx="178.7" cy="217.6" rx="0.3" ry="5.6"/>
	<path class="st3" d="M195.1,133.5c-2.5,0-5.1,0-7.6,0c0-0.1,0-0.3,0-0.4c2.5,0,5,0,7.4,0C195,133.2,195.1,133.3,195.1,133.5z"/>
	<ellipse class="st4" cx="176.7" cy="110.7" rx="0.3" ry="5.6"/>
	<ellipse class="st2" cx="122.8" cy="152.2" rx="0.3" ry="4.9"/>
	<ellipse class="st92" cx="121.8" cy="209.1" rx="0.3" ry="4.9"/>
	<ellipse class="st2" cx="177.7" cy="171.2" rx="0.3" ry="4.9"/>
	<path class="st3" d="M150.5,85.6c0-1.9,0-3.8,0-5.6c0.1,0,0.3,0,0.4-0.1c0,1.8,0,3.7,0,5.5C150.8,85.5,150.6,85.6,150.5,85.6z"/>
	<path class="st2" d="M185,208.5c-1.1-2.5-0.7-4.2-0.5-6.6C185.6,204.3,185.2,206,185,208.5z"/>
	<path class="st93" d="M152.8,150.8c-0.6-2.9-0.7-4.5-0.1-6.6C153.5,146.3,153.4,147.9,152.8,150.8z"/>
	<ellipse class="st3" cx="76.8" cy="122.2" rx="0.3" ry="3.5"/>
	<path class="st92" d="M223.4,128.5c0-1.6,0-3.1,0-4.7c0.2,0,0.3,0,0.5,0c0,1.6,0,3.1,0,4.7C223.7,128.5,223.6,128.5,223.4,128.5z"
		/>
	<path class="st3" d="M151.4,219.5c0-1.6,0-3.1,0-4.7c0.2,0,0.3,0,0.5,0c0,1.6,0,3.1,0,4.7C151.8,219.5,151.6,219.5,151.4,219.5z"/>
	<path class="st3" d="M144.8,169.9c0.5,2.3,0.7,3.5,0.1,4.9C143.9,173.4,144.2,172.1,144.8,169.9z"/>
	<path class="st2" d="M183.8,80.1c-0.6-1.5-0.7-2.5,0-3.6C184.5,77.6,184.4,78.6,183.8,80.1z"/>
	<path class="st2" d="M225.2,132.9c-0.1,0.9-0.1,2.5-0.3,2.5c-1.2,0.2-0.6-0.9-0.7-1.5c-0.1-0.4,0.2-0.9,0.3-1.3
		C224.8,132.7,225,132.8,225.2,132.9z"/>
</g>
</svg>
