<?xml version="1.0" encoding="UTF-8"?>
<svg version="1.1" xmlns="http://www.w3.org/2000/svg" width="2529" height="3556">
<path d="M0 0 C87.44167047 -3.10203974 174.89008276 -5.96142404 262.37237549 -7.62176514 C263.67831746 -7.64661541 264.98425942 -7.67146568 266.32977539 -7.69706899 C294.05559966 -8.22332166 321.78194654 -8.71276867 349.50918191 -9.15834207 C363.44996811 -9.38240903 377.39062712 -9.61369965 391.33118008 -9.85183948 C393.43326773 -9.88770641 395.53535882 -9.92336672 397.63745013 -9.95901844 C429.78026162 -10.50597315 461.91067202 -11.20187153 494.0378418 -12.35961914 C495.06367212 -12.39658181 495.06367212 -12.39658181 496.11022628 -12.4342912 C507.12738717 -12.83222024 518.14405416 -13.24338424 529.16066116 -13.65631928 C561.13138341 -14.85447248 593.0919308 -15.94467651 625.08299637 -16.40516281 C626.08230395 -16.41961728 626.08230395 -16.41961728 627.10179956 -16.43436376 C641.1121933 -16.63536337 655.12274914 -16.79486382 669.13418055 -16.90469821 C675.71027182 -16.95652467 682.28628632 -17.01513797 688.8622818 -17.07790375 C690.15583971 -17.09003989 691.44939762 -17.10217603 692.78215426 -17.11467993 C710.68427882 -17.2976925 728.52868763 -17.8920887 746.40633763 -18.8347478 C855.69586859 -24.58572777 951.70757821 -15.76847655 1036.47951707 60.44746116 C1091.53405618 110.43653506 1127.88406165 168.36961362 1143.34359494 302.17511103 C1146.12924753 360.21203287 1144.69554028 418.30531504 1142.73570289 476.3411093 C1141.76675627 505.14293394 1141.25177189 533.92443906 1141.07790375 562.74181366 C1141.07170961 563.74018952 1141.06551548 564.73856537 1141.05913364 565.76719504 C1141.0027296 574.89055476 1140.95094894 584.01393574 1140.90469821 593.13735265 C1140.78984827 615.78150943 1140.61732253 638.42502703 1140.40516281 661.06847763 C1140.39556567 662.09774008 1140.38596852 663.12700253 1140.37608055 664.18745475 C1139.90816184 713.83083824 1138.77457782 763.45563352 1137.57910156 813.0859375 C1137.16647111 830.2319942 1136.75684595 847.37811472 1136.35961914 864.52453613 C1136.33496829 865.58846826 1136.31031744 866.65240038 1136.28491959 867.74857287 C1135.13543306 917.53896897 1134.46999605 967.33263475 1133.92335601 1017.13286727 C1133.88770603 1020.37988285 1133.85185082 1023.6268961 1133.81595377 1026.87390896 C1133.57831937 1048.39843091 1133.3488954 1069.92303543 1133.1249591 1091.44770395 C1132.67959913 1134.24858232 1132.18611509 1177.04886473 1131.6593906 1219.84881768 C1131.63432704 1221.88543333 1131.60929721 1223.9220494 1131.58430128 1225.95866589 C1130.46380167 1317.2318537 1128.78463912 1408.49155535 1126.85644531 1499.75097656 C1126.83845695 1500.60251856 1126.82046858 1501.45406055 1126.80193511 1502.33140685 C1125.90250522 1544.88837652 1124.97083218 1587.44459734 1124 1630 C1119.96015749 1629.27361631 1117.06244118 1628.12256009 1113.484375 1626.078125 C1112.41058594 1625.47121826 1111.33679687 1624.86431152 1110.23046875 1624.23901367 C1109.66376465 1623.9150058 1109.09706055 1623.59099792 1108.51318359 1623.25717163 C1105.49195506 1621.53137536 1102.45707585 1619.82997502 1099.421875 1618.12890625 C1098.80203735 1617.78116653 1098.18219971 1617.43342682 1097.5435791 1617.07514954 C1088.40425834 1611.9665467 1079.07392133 1607.22208367 1069.76464844 1602.43310547 C1067.31419589 1601.16286911 1064.87645739 1599.87310595 1062.4453125 1598.56640625 C1035.34853483 1584.00790448 1007.36600819 1571.18245218 979.16156006 1558.93884277 C977.05286339 1558.02296046 974.94551158 1557.10404412 972.83837891 1556.18457031 C950.48491951 1546.44583081 927.83632332 1537.54013762 905 1529 C904.24245422 1528.71640625 903.48490845 1528.4328125 902.70440674 1528.140625 C843.94763106 1506.17845855 783.78100411 1489.3416365 723 1474 C721.92429749 1473.72774597 720.84859497 1473.45549194 719.74029541 1473.17498779 C635.8888175 1451.96224247 551.36545852 1433.34550073 466.68470192 1415.76922798 C463.77606312 1415.16541846 460.86759027 1414.56081515 457.95915222 1413.95603943 C449.69461362 1412.23827445 441.42957896 1410.52352369 433.15951157 1408.83255196 C415.12965029 1405.14098332 397.19523816 1401.19284261 379.33984375 1396.7265625 C378.50722519 1396.51881636 377.67460663 1396.31107021 376.8167572 1396.09702873 C363.00693611 1392.63768115 349.45460151 1388.67093572 336 1384 C335.03304199 1383.67241699 334.06608398 1383.34483398 333.06982422 1383.00732422 C314.30644007 1376.64013291 296.1471325 1368.92090636 278 1361 C277.00564941 1360.56655273 276.01129883 1360.13310547 274.98681641 1359.68652344 C269.29264725 1357.19185525 263.63508128 1354.62526179 258 1352 C256.56382324 1351.33218506 256.56382324 1351.33218506 255.09863281 1350.65087891 C210.70251849 1329.91165141 170.20632054 1304.07941104 134 1271 C132.99515521 1270.09985442 131.98992772 1269.20013593 130.984375 1268.30078125 C122.48877572 1260.64890077 114.64255314 1252.49993389 107 1244 C106.23671387 1243.15381104 106.23671387 1243.15381104 105.45800781 1242.29052734 C81.23169144 1215.24552617 62.26791957 1184.33110085 46 1152 C45.60216309 1151.21898926 45.20432617 1150.43797852 44.79443359 1149.63330078 C24.90491387 1110.3801654 12.78579774 1067.2027629 5.1875 1024 C5.00477539 1022.96617187 4.82205078 1021.93234375 4.63378906 1020.8671875 C4.15828272 1018.00536007 3.73120264 1015.14055804 3.3245884 1012.26826291 C3.10143535 1010.70884247 2.87131672 1009.15040794 2.63540407 1007.59286673 C-0.39026858 987.19999652 -0.42307665 967.00380629 -0.36679858 946.44089916 C-0.35636325 941.3849977 -0.36363325 936.32911389 -0.36853105 931.27320826 C-0.37471345 922.43653356 -0.36988788 913.59991983 -0.35761642 904.76325226 C-0.33942063 891.62371086 -0.33861739 878.48420746 -0.34124239 865.34465576 C-0.34517334 843.23583681 -0.33522282 821.12704077 -0.31719017 799.01823044 C-0.29938913 777.1408513 -0.28785818 755.26348329 -0.28463173 733.38609695 C-0.28452849 732.70526968 -0.28442526 732.02444241 -0.28431889 731.32298401 C-0.28337922 725.10416703 -0.28251616 718.88535004 -0.28174497 712.66653304 C-0.27982742 697.21109725 -0.27694985 681.75566172 -0.27341938 666.30022621 C-0.27325943 665.59662085 -0.27309948 664.89301549 -0.27293468 664.16808875 C-0.26508067 629.98819431 -0.24616235 595.8083072 -0.22631836 561.62841797 C-0.21944303 549.77551275 -0.21261678 537.92260751 -0.20599365 526.06970215 C-0.2055828 525.3345279 -0.20517196 524.59935364 -0.20474866 523.84190139 C-0.18569667 489.62964843 -0.17453329 455.41739421 -0.16538927 421.20513733 C-0.16479508 418.98252261 -0.1641975 416.7599079 -0.16359923 414.53729318 C-0.15963969 399.8072178 -0.15581578 385.07714239 -0.15208265 370.34706695 C-0.14465423 341.040892 -0.13642923 311.73471729 -0.12765651 282.42854272 C-0.12723879 281.03308261 -0.12682163 279.6376225 -0.12640502 278.24216238 C-0.10047743 191.41640072 -0.05686733 104.59064724 0 0 Z M913 111 C912.10040698 112.89405221 911.20584536 114.79049303 910.3125 116.6875 C909.98241943 117.32236328 909.65233887 117.95722656 909.31225586 118.61132812 C906.90494882 123.41394657 905.49697773 127.95741119 904.328125 133.20703125 C902.27950061 141.21817035 900.00058644 149.91332157 893 155 C880.82935294 160.33728253 865.88736498 160.67681204 852.77894592 161.21974182 C845.92107756 161.57388569 841.54858851 162.82881166 836.31274414 167.5078125 C831.49055596 174.66171497 831.35185678 183.64870867 830.4375 192 C830.16577049 194.43322528 829.88788482 196.8650203 829.59181213 199.29541016 C829.40906357 200.79859363 829.23986558 202.30351598 829.08726501 203.81005859 C828.31419443 210.22577672 826.20719773 215.72255644 821.66796875 220.40625 C818.49451083 222.30196132 815.96218318 222.90026828 812.3125 223.5 C811.31307373 223.67317749 811.31307373 223.67317749 810.29345703 223.84985352 C805.66782602 224.6324082 801.02453781 225.28221338 796.37890625 225.93359375 C795.22414795 226.09988281 794.06938965 226.26617188 792.87963867 226.4375 C790.57588441 226.76617215 788.27001697 227.08041504 785.9621582 227.37890625 C778.63617359 228.41753799 773.6360733 229.55403178 768.94506836 235.6862793 C766.81235807 239.31967665 766.09552987 242.1229937 765.40234375 246.265625 C765.22468727 247.30242401 765.22468727 247.30242401 765.04344177 248.36016846 C763.56255726 257.21085891 762.40756314 266.11928514 761.27319336 275.02001953 C759.4345835 289.34296014 757.10757515 305.70759459 745.25 315.4375 C737.5859293 320.60050946 729.11646076 322.09400111 720.1171875 320.484375 C687.03320345 312.79743565 655.50499362 294.33337316 625.28512955 279.26483154 C623.53197849 278.39094028 621.77824731 277.51821317 620.02450562 276.64550781 C606.4936952 269.90400136 593.09559453 262.9841539 579.86962891 255.66137695 C560.26674831 244.39695216 560.26674831 244.39695216 538.3125 244.0625 C525.21060468 248.28589032 517.10784683 258.73328444 509.03515625 269.36328125 C504.65479125 275.03841825 500.0735416 280.55703084 495.54101562 286.11083984 C494.20764272 287.74544686 492.87700547 289.38228467 491.546875 291.01953125 C486.24588496 297.53135894 480.83960807 303.94886193 475.40283203 310.34716797 C474.02522412 311.97028067 472.65068243 313.5959304 471.27734375 315.22265625 C453.4081194 336.38848876 453.4081194 336.38848876 446.3125 344.1875 C443.37757249 347.41539711 440.59583974 350.71508353 437.875 354.125 C433.34754877 359.72851799 428.45649907 364.94940933 423.49169922 370.16650391 C419.78150573 374.0693326 416.18174746 378.04210637 412.65234375 382.10913086 C410.25708823 384.85015539 407.7906851 387.52158008 405.3125 390.1875 C404.27335288 391.30851531 403.23429302 392.42961152 402.1953125 393.55078125 C401.66969727 394.11748535 401.14408203 394.68418945 400.60253906 395.26806641 C398.99870199 397.00140281 397.40079626 398.74001539 395.8046875 400.48046875 C391.18771615 405.5107717 386.56512663 410.508836 381.68237305 415.28466797 C379.98120301 417.01916524 378.40786594 418.81927046 376.83203125 420.66796875 C372.25641655 425.92796769 367.28743635 430.76242834 362.31640625 435.64453125 C361.60355469 436.34964844 360.89070313 437.05476563 360.15625 437.78125 C359.20975586 438.7103418 359.20975586 438.7103418 358.24414062 439.65820312 C356.3490187 441.63579337 354.55885533 443.65109546 352.77124023 445.72436523 C348.86586076 450.2157109 344.71683386 454.42737804 340.50390625 458.62890625 C339.71153061 459.42223862 338.91915497 460.21557098 338.10276794 461.03294373 C336.43749717 462.69889081 334.77097971 464.36359256 333.10327148 466.02709961 C330.56965378 468.55536134 328.04141833 471.08891661 325.51367188 473.62304688 C323.88573717 475.2503207 322.25749225 476.87728425 320.62890625 478.50390625 C319.88282608 479.25201065 319.13674591 480.00011505 318.36805725 480.77088928 C314.28036867 484.84062135 310.09634888 488.72799219 305.72789001 492.49449158 C303.73417286 494.23161486 301.85093009 496.04938605 300 497.9375 C299.34 498.60523437 298.68 499.27296875 298 499.9609375 C297.34 500.63382813 296.68 501.30671875 296 502 C291.3999344 506.68991063 286.72847197 511.18455832 281.75 515.47265625 C279.73749029 517.22911004 277.85508105 519.07866605 276 521 C272.93882747 524.10246002 269.76857732 526.98106424 266.46484375 529.8203125 C263.08015024 532.81343291 259.79449566 535.90826114 256.5 539 C252.04332313 543.17884816 247.57510648 547.32150674 242.94140625 551.3046875 C240.48290184 553.45155051 238.089711 555.66537132 235.6875 557.875 C232.06476095 561.18336914 228.38307109 564.36012358 224.5625 567.4375 C220.56773566 570.65945075 216.75468333 574.00677983 213 577.5 C208.47011346 581.71025775 203.79707608 585.6763803 198.98046875 589.5546875 C195.42709058 592.47004102 191.96284737 595.47821049 188.5 598.5 C182.42969417 603.79026276 176.26210764 608.93742127 170 614 C168.27002243 615.4156763 166.54087763 616.8323708 164.8125 618.25 C162.87543621 619.83386697 160.93788964 621.41714358 159 623 C158.40026367 623.49016602 157.80052734 623.98033203 157.18261719 624.48535156 C147.86758364 632.09395722 138.48673645 639.60675322 129 647 C128.31180176 647.53737793 127.62360352 648.07475586 126.91455078 648.62841797 C115.99513819 657.15426808 105.01896663 665.60326846 94 674 C97.58341174 676.38894116 100.7642112 676.74120073 104.9296875 677.2890625 C105.71586456 677.39721283 106.50204163 677.50536316 107.31204224 677.61679077 C108.98094128 677.84411383 110.65038749 678.06745001 112.3203125 678.28710938 C114.83254937 678.61938535 117.34194492 678.96886704 119.8515625 679.3203125 C132.71814616 681.07646727 144.96920854 681.62180536 157.875 679.75 C158.82479736 679.61432617 159.77459473 679.47865234 160.75317383 679.33886719 C204.26486414 672.81082424 245.63920787 647.64261201 279 620 C280.34067721 618.90177142 281.68184992 617.80414754 283.0234375 616.70703125 C286.62800959 613.75309497 290.21991311 610.78414308 293.80908203 607.81152344 C296.00313646 605.99740667 298.20185541 604.18911791 300.40234375 602.3828125 C307.4678961 596.58187159 314.50563553 590.75376142 321.46972656 584.83129883 C325.66423083 581.26887023 329.91963636 577.7863425 334.1875 574.3125 C337.31799851 571.73853455 340.41165634 569.12423097 343.5 566.5 C349.27545014 561.59452058 355.12097083 556.78103401 361 552 C367.51334753 546.68277648 374.01096178 541.34684232 380.5 536 C386.9890525 530.65314592 393.48886555 525.31995016 400 520 C400.84175781 519.31035156 401.68351562 518.62070313 402.55078125 517.91015625 C405.36524345 515.60438203 408.18213514 513.30161481 411 511 C411.89960449 510.26475098 411.89960449 510.26475098 412.81738281 509.51464844 C420.42082972 503.3040826 428.05121537 497.13487983 435.78710938 491.08984375 C439.36291678 488.29384519 442.91419008 485.46993523 446.45019531 482.6237793 C453.04247313 477.31832655 459.70946051 472.12442679 466.44580078 467.00317383 C470.95412677 463.57368055 475.43078682 460.10727058 479.88891602 456.61279297 C487.48160052 450.66606376 495.15030838 444.88857277 503.05664062 439.36621094 C505.25120532 437.82339887 507.43013406 436.2596898 509.609375 434.6953125 C550.09913713 405.7786178 550.09913713 405.7786178 565 407 C567.57646431 412.15292862 566.12584968 418.31250964 564.5 423.5625 C556.08076861 446.69353711 541.23047995 467.15372242 527 487 C525.92946856 488.50505262 524.85915101 490.01025742 523.7890625 491.515625 C515.44593417 503.20346883 506.74814153 514.61368304 498 526 C497.08444323 527.1951653 496.16905382 528.39045885 495.25390625 529.5859375 C488.21680986 538.76073969 481.1109997 547.88243107 474 557 C473.50854492 557.63083496 473.01708984 558.26166992 472.51074219 558.91162109 C466.70427757 566.35992767 460.80527534 573.72531239 454.83349609 581.04174805 C451.36073646 585.30330407 447.94167388 589.6014857 444.5625 593.9375 C439.80767822 600.03365059 434.90969835 606.00476228 429.98291016 611.96240234 C426.31394513 616.39973701 422.68541787 620.86458626 419.1015625 625.37109375 C416.3570997 628.80422286 413.58541674 632.21483668 410.8125 635.625 C410.25828369 636.3068335 409.70406738 636.98866699 409.13305664 637.69116211 C406.31165795 641.16106502 403.48754343 644.62872508 400.66015625 648.09375 C395.50707333 654.41469203 390.38717021 660.75404844 385.375 667.1875 C381.41125249 672.273522 377.31010256 677.21633485 373.11791992 682.11499023 C369.39953824 686.47953203 365.85494744 690.96238696 362.3359375 695.48828125 C358.63840845 700.22736778 354.83478618 704.87154094 351 709.5 C345.33060893 716.34891334 339.78805384 723.2829075 334.32666016 730.29833984 C332.05991651 733.20581191 329.77910327 736.10221399 327.5 739 C326.5793767 740.17183542 325.65880368 741.34371034 324.73828125 742.515625 C322.94521476 744.79782527 321.150882 747.07902056 319.35546875 749.359375 C301.84285088 771.60861629 284.4023349 793.91377511 268 817 C267.43039551 817.79760742 266.86079102 818.59521484 266.27392578 819.41699219 C238.67566317 854.20591106 238.67566317 854.20591106 227 895 C228.73040118 897.6557715 228.73040118 897.6557715 231 899 C253.75543938 893.96653876 274.06053303 875.00913802 292 861 C293.20181351 860.06639414 294.4036361 859.13279997 295.60546875 858.19921875 C303.25646646 852.2362881 310.79079797 846.13346226 318.30859375 840.00390625 C321.29643058 837.56883821 324.29847033 835.15262587 327.3125 832.75 C335.36805419 826.31898257 343.3087001 819.76074198 351.16333008 813.08666992 C355.4609124 809.44056418 359.81648907 805.8702996 364.1875 802.3125 C367.8809391 799.2756723 371.52298486 796.18039045 375.16625977 793.08374023 C378.55954109 790.2045468 381.98267786 787.36795763 385.4375 784.5625 C390.86000153 780.14737176 396.16127455 775.59987523 401.4609375 771.0390625 C405.32089192 767.71878494 409.20932926 764.43288446 413.10058594 761.14941406 C417.12821886 757.74705344 421.12874418 754.31411954 425.125 750.875 C429.1862481 747.38180518 433.27518779 743.93551449 437.4375 740.5625 C442.48854068 736.46084729 447.40128396 732.21408989 452.30786133 727.94213867 C457.96244531 723.02133926 463.67463329 718.17226279 469.40722656 713.34277344 C472.10814812 711.06578561 474.80377244 708.78254206 477.5 706.5 C478.58330865 705.58330416 479.66664196 704.66663747 480.75 703.75 C481.28625 703.29625 481.8225 702.8425 482.375 702.375 C484.8125 700.3125 484.8125 700.3125 487.25 698.25 C487.78641113 697.79608887 488.32282227 697.34217773 488.87548828 696.87451172 C489.95709521 695.95935587 491.03880069 695.0443165 492.12060547 694.12939453 C494.85617939 691.81556522 497.58992474 689.49963529 500.3203125 687.1796875 C505.3252298 682.93034079 510.34183625 678.70319309 515.4375 674.5625 C519.62823896 671.15524702 523.72919144 667.65898958 527.8125 664.125 C533.00679831 659.635495 538.32227471 655.34876139 543.74926758 651.14501953 C547.93994087 647.88060718 551.98917002 644.48227966 556 641 C561.06583406 636.60515133 566.23829251 632.3976296 571.53686523 628.28735352 C576.2865048 624.59187172 580.93106868 620.77971186 585.5625 616.9375 C592.58726182 611.11929624 599.73646434 605.51660936 607 600 C609.04197951 598.41707015 611.08363828 596.83372647 613.125 595.25 C621.64002546 588.68567994 630.30703761 582.32588138 639 576 C639.73299316 575.46552246 640.46598633 574.93104492 641.22119141 574.38037109 C681.88972817 544.83612065 681.88972817 544.83612065 696.625 544.875 C697.60726562 544.87242187 698.58953125 544.86984375 699.6015625 544.8671875 C702 545 702 545 703 546 C706.97189827 575.73249559 673.7442946 612.7768682 657.80419922 635.41845703 C655.73174329 638.38383578 653.70482539 641.37771089 651.68261719 644.37744141 C646.28049876 652.3716891 640.44805833 659.97213836 634.48046875 667.55078125 C631.20834623 671.71209697 628.0308005 675.93764706 624.875 680.1875 C620.48743395 686.08295075 615.96640653 691.8525278 611.35449219 697.57373047 C607.81772377 701.96408212 604.3533874 706.40065569 600.92700195 710.87792969 C593.11467416 721.08443262 585.20220753 731.21470761 577.25 741.3125 C573.45697339 746.12935655 569.69885794 750.9712267 565.97070312 755.83862305 C563.58137978 758.95486922 561.17623617 762.0577567 558.75390625 765.1484375 C552.163073 773.56359403 545.69951372 782.05100935 539.39379883 790.68212891 C535.65552346 795.78804065 531.84446207 800.83000264 527.98291016 805.84326172 C520.49158113 815.57358428 513.36723951 825.47584099 506.546875 835.68701172 C504.98821308 838.01762457 503.41715705 840.33947822 501.84375 842.66015625 C495.58076784 851.92952684 489.59802074 861.31416988 484 871 C483.64373535 871.61488281 483.2874707 872.22976563 482.92041016 872.86328125 C480.22069841 877.54326608 477.59962897 882.26384649 475 887 C474.56397461 887.78616699 474.12794922 888.57233398 473.67871094 889.38232422 C452.2079663 928.27229771 439.81106719 972.27440708 443.9375 1016.875 C444.02451172 1017.88046875 444.11152344 1018.8859375 444.20117188 1019.921875 C444.59771166 1024.35137123 445.06793661 1028.64646894 446 1033 C449.96972834 1029.13319054 453.63477419 1025.07327484 457.25 1020.875 C457.82137695 1020.21411377 458.39275391 1019.55322754 458.98144531 1018.87231445 C463.03729948 1014.16385306 466.98069396 1009.37330326 470.890625 1004.54296875 C473.74475219 1001.10215985 476.75641756 997.81665864 479.765625 994.51171875 C482.00134533 991.99848768 484.13377682 989.42688521 486.25 986.8125 C490.41084769 981.67305572 494.71734489 976.67673848 499.05932617 971.69091797 C502.59159995 967.63216743 506.09432856 963.55114718 509.5625 959.4375 C513.35414489 954.94017638 517.16728302 950.46238201 521 946 C524.85138938 941.5150648 528.686331 937.01705464 532.5 932.5 C536.815252 927.38885138 541.16166658 922.30530858 545.51953125 917.23046875 C548.86292298 913.33416469 552.18792482 909.42294783 555.5 905.5 C559.81754503 900.38613542 564.16298496 895.29701029 568.52832031 890.22387695 C570.92018126 887.4409352 573.29962505 884.65014012 575.640625 881.82421875 C582.78158502 873.22343041 590.3931445 865.12012411 598.09130859 857.01757812 C600.83510957 854.11724924 603.54655762 851.18791774 606.25 848.25 C606.72945068 847.72921875 607.20890137 847.2084375 607.70288086 846.671875 C608.65697942 845.63498745 609.61083912 844.59788008 610.56445312 843.56054688 C613.03924564 840.87026223 615.51998979 838.18547384 618 835.5 C619.00002702 834.41669161 620.00002706 833.33335831 621 832.25 C623 830.08333333 625 827.91666667 627 825.75 C627.7422583 824.9458667 627.7422583 824.9458667 628.49951172 824.12548828 C629.50108526 823.04047744 630.502713 821.95551662 631.50439453 820.87060547 C633.98076272 818.18834243 636.45623064 815.50526066 638.9296875 812.8203125 C644.87325998 806.37098813 650.84413607 799.94816825 656.8347168 793.54248047 C661.52308465 788.52403793 666.16740246 783.46695861 670.79296875 778.390625 C672.08835108 776.9874852 673.41334883 775.60906705 674.80078125 774.296875 C676.2263076 773.04965596 676.2263076 773.04965596 676 771 C676.85851562 770.63455078 676.85851562 770.63455078 677.734375 770.26171875 C680.40433538 768.77482702 682.13829007 767.01916092 684.25 764.8125 C687.6433943 761.27668222 691.20373014 758.04639806 694.90332031 754.84057617 C698.26233991 751.89185135 701.50242911 748.82030613 704.75 745.75 C710.48814337 740.34763096 716.25935409 734.98740086 722.078125 729.671875 C725.20643985 726.81122345 728.3236772 723.9389025 731.4375 721.0625 C731.97785889 720.56339111 732.51821777 720.06428223 733.07495117 719.55004883 C734.16964892 718.53879388 735.26429396 717.52748188 736.35888672 716.51611328 C739.07177586 714.00985896 741.78594859 711.50499554 744.5 709 C745.58333957 708.00000676 746.66667291 707.00000676 747.75 706 C764 691 764 691 780.25 676 C780.78608887 675.505 781.32217773 675.01 781.87451172 674.5 C782.958874 673.49935087 784.0438361 672.49935136 785.12939453 671.5 C787.8272605 669.01488927 790.5140322 666.51965941 793.1796875 664 C801.10877604 656.53497026 809.42235763 649.70395098 818 643 C819.19054057 642.06305425 820.38065286 641.12556403 821.5703125 640.1875 C825.61719589 636.99894388 829.67330114 633.82220854 833.72949219 630.64550781 C841.06971078 624.89504891 848.39587583 619.12817375 855.65576172 613.27636719 C858.3957418 611.06910094 861.14217912 608.8933187 863.95703125 606.78125 C872.11029239 600.62046497 878.0701102 593.25553009 880 583 C881.37772214 569.47791234 876.1676912 559.94322568 870 548.25 C869.24783203 546.80560547 869.24783203 546.80560547 868.48046875 545.33203125 C865.83206991 540.2736539 863.1409916 535.24362132 860.38110352 530.24536133 C852.84459063 516.58293679 845.70216104 502.74929693 838.73608398 488.7878418 C837.53980928 486.39066101 836.33894225 483.99587793 835.13354492 481.60327148 C824.72346084 460.9382012 814.4277015 440.09911655 806.875 418.1875 C806.50375 417.14142578 806.1325 416.09535156 805.75 415.01757812 C802.03623824 404.4794403 799.5852793 393.39551227 803.625 382.5 C807.64284539 374.13179788 813.10390012 368.94014333 821.9140625 365.64794922 C832.82506148 362.25869462 844.65972344 361.42234622 855.9453125 359.97265625 C856.61537323 359.88584595 857.28543396 359.79903564 857.97579956 359.70959473 C861.26475838 359.28425345 864.55372102 358.87193055 867.84716797 358.48193359 C876.42511621 357.41441992 884.6170842 356.3829158 891 350 C894.67416897 344.27933796 895.15300244 337.96979298 896.0625 331.375 C896.38598271 329.13270619 896.71019814 326.89051796 897.03515625 324.6484375 C897.27250488 322.99859863 897.27250488 322.99859863 897.51464844 321.31542969 C897.99827388 318.01179113 898.49581229 314.71158936 899.01953125 311.4140625 C899.1688208 310.46740723 899.31811035 309.52075195 899.47192383 308.54541016 C900.57571023 303.22498617 902.40789438 300.05868916 907.0546875 296.96875 C914.59666527 293.37130697 923.67094163 293.18935574 931.88232422 292.21826172 C945.83707455 290.89776409 945.83707455 290.89776409 957.375 283.5625 C960.87595633 278.04176117 961.65413385 272.6156229 962.5078125 266.24609375 C962.63815887 265.30822525 962.76850525 264.37035675 962.90280151 263.40406799 C963.17633375 261.42677572 963.44678685 259.44905536 963.71435547 257.47094727 C964.12414554 254.44381194 964.54367676 251.41814941 964.96484375 248.39257812 C965.22973906 246.46882873 965.49408085 244.54500302 965.7578125 242.62109375 C965.88278107 241.71685165 966.00774963 240.81260956 966.13650513 239.88096619 C966.30700882 238.61428856 966.30700882 238.61428856 966.48095703 237.32202148 C966.58151398 236.58209457 966.68207092 235.84216766 966.78567505 235.07981873 C967.06833799 232.68531725 967.06833799 232.68531725 967 229 C967.82219276 228.7411628 967.82219276 228.7411628 968.66099548 228.47709656 C974.186126 226.69306513 979.46477196 224.59459777 984.75390625 222.20703125 C985.54022934 221.85613937 986.32655243 221.5052475 987.13670349 221.14372253 C989.61376186 220.03727198 992.08815451 218.92500203 994.5625 217.8125 C996.25568549 217.05494979 997.94904341 216.29778483 999.64257812 215.54101562 C1003.76372279 213.6984522 1007.88248975 211.85067 1012 210 C1007.24477037 204.28238648 1002.15244471 199.01032375 996.8894043 193.76000977 C995.54450676 192.41248375 995.54450676 192.41248375 994.17243958 191.03773499 C991.73297938 188.59374912 989.29040717 186.15289659 986.84709144 183.71276593 C984.2862721 181.15449082 981.72790747 178.59376274 979.16914368 176.03343201 C974.87977584 171.74225046 970.58831577 167.4531698 966.2956543 163.1652832 C961.32786473 158.20295557 956.36371592 153.23700765 951.40140218 148.26920468 C947.13647101 143.9997444 942.86960547 139.73222467 938.60109836 135.46633953 C936.0531483 132.91995069 933.50588412 130.37288563 930.96036339 127.82406807 C928.1309652 124.99126046 925.2975217 122.16253391 922.46362305 119.33422852 C921.61637665 118.48495789 920.76913025 117.63568726 919.89620972 116.76068115 C919.12940384 115.9966951 918.36259796 115.23270905 917.57255554 114.4455719 C916.90283061 113.77622399 916.23310568 113.10687609 915.54308605 112.41724491 C914.2264434 110.88726044 914.2264434 110.88726044 913 111 Z " fill="#FFFFFF" transform="translate(112,1832)"/>
<path d="M0 0 C2 0 2 0 3.41015625 1.3984375 C4.22806641 2.37683594 4.22806641 2.37683594 5.0625 3.375 C7.82817409 6.62941067 10.63308192 9.83413833 13.5 13 C16.76390848 16.61676345 19.98790949 20.26389608 23.1875 23.9375 C25.27211164 26.30964429 27.38428644 28.65556065 29.5 31 C32.76390848 34.61676345 35.98790949 38.26389608 39.1875 41.9375 C41.27211164 44.30964429 43.38428644 46.65556065 45.5 49 C48.76390848 52.61676345 51.98790949 56.26389608 55.1875 59.9375 C57.27211164 62.30964429 59.38428644 64.65556065 61.5 67 C64.76390848 70.61676345 67.98790949 74.26389608 71.1875 77.9375 C73.27211164 80.30964429 75.38428644 82.65556065 77.5 85 C80.76390848 88.61676345 83.98790949 92.26389608 87.1875 95.9375 C89.27211164 98.30964429 91.38428644 100.65556065 93.5 103 C96.76390848 106.61676345 99.98790949 110.26389608 103.1875 113.9375 C105.27211164 116.30964429 107.38428644 118.65556065 109.5 121 C112.76390848 124.61676345 115.98790949 128.26389608 119.1875 131.9375 C121.27211164 134.30964429 123.38428644 136.65556065 125.5 139 C128.76390848 142.61676345 131.98790949 146.26389608 135.1875 149.9375 C137.27211164 152.30964429 139.38428644 154.65556065 141.5 157 C144.76390848 160.61676345 147.98790949 164.26389608 151.1875 167.9375 C153.27211164 170.30964429 155.38428644 172.65556065 157.5 175 C160.76390848 178.61676345 163.98790949 182.26389608 167.1875 185.9375 C169.27211164 188.30964429 171.38428644 190.65556065 173.5 193 C176.76390848 196.61676345 179.98790949 200.26389608 183.1875 203.9375 C185.27211164 206.30964429 187.38428644 208.65556065 189.5 211 C192.76390848 214.61676345 195.98790949 218.26389608 199.1875 221.9375 C201.27211164 224.30964429 203.38428644 226.65556065 205.5 229 C208.76390848 232.61676345 211.98790949 236.26389608 215.1875 239.9375 C217.27211164 242.30964429 219.38428644 244.65556065 221.5 247 C224.20919191 250.0025731 226.9032688 253.01559045 229.5625 256.0625 C230.09717028 256.6562719 230.63184056 257.2500438 231.18271297 257.86180878 C233 260 233 260 234.56627661 262.31378933 C237.33302256 266.10205867 239.48936332 268.59625088 244.1145457 269.83242721 C248.0159611 270.15390834 251.86569206 270.18688643 255.77452087 270.12304783 C257.29031552 270.13141893 258.80609257 270.14373691 260.32182699 270.15963176 C264.49250782 270.1919215 268.66127935 270.16815738 272.83188665 270.13533371 C277.35633324 270.10961021 281.88051878 270.13604495 286.404953 270.15594482 C294.3445465 270.18363083 302.28357197 270.17777793 310.22315788 270.15025151 C322.18228925 270.10896965 334.14099399 270.12006422 346.10015792 270.14112014 C366.14065812 270.17498875 386.1809398 270.16804694 406.22143555 270.13633728 C433.31899006 270.09359111 460.41602813 270.10688083 487.51367188 270.12976074 C552.6757797 270.15631614 617.83790036 270.10458937 683 270.0625 C828.53 270.041875 974.06 270.02125 1124 270 C1124 735.96 1124 1201.92 1124 1682 C971.766875 1685.691875 819.53375 1689.38375 662.6875 1693.1875 C591.12845825 1695.63192505 591.12845825 1695.63192505 518.1237793 1698.12573242 C458.94689941 1698.9342041 458.94689941 1698.9342041 431.06550598 1699.08442688 C413.17816066 1699.23799235 395.38860111 1699.76356757 377.52789232 1700.70345198 C268.72072541 1706.40793956 171.7107207 1698.36872225 86.94445383 1622.66548849 C31.11985135 1572.29973467 -4.06563661 1513.66172456 -19.1041244 1379.84561675 C-22.0857094 1318.79671453 -20.60687643 1257.66887774 -18.63161716 1196.61601208 C-17.66862049 1166.73829662 -17.15601263 1136.87994001 -16.9830265 1106.98741722 C-16.97686678 1105.95228819 -16.97070706 1104.91715915 -16.96436067 1103.85066257 C-16.90827121 1094.39165854 -16.85677806 1084.93263423 -16.81078322 1075.47357566 C-16.69656093 1051.9947618 -16.52498699 1028.51655739 -16.31402302 1005.03841686 C-16.30447919 1003.97112898 -16.29493536 1002.90384111 -16.28510233 1001.80421117 C-15.81961443 950.30790639 -14.69224584 898.82930261 -13.50366211 847.34545898 C-13.09332973 829.55555595 -12.68598283 811.76559214 -12.29095459 793.9753418 C-12.26644069 792.87148314 -12.24192678 791.76762448 -12.21667003 790.63031556 C-11.07389897 738.98648031 -10.41193121 687.33953484 -9.86822626 635.68632862 C-9.83277427 632.3191217 -9.79711827 628.95191698 -9.76142069 625.58471266 C-9.52510968 603.26372731 -9.29695972 580.94266327 -9.07426488 558.62153821 C-8.63136142 514.23568585 -8.1406181 469.85040156 -7.61683843 425.46543129 C-7.59191413 423.35331985 -7.56702335 421.24120802 -7.54216627 419.12909579 C-6.42767487 324.45411801 -4.75776534 229.79198848 -2.84057617 135.13012695 C-2.82268774 134.24670219 -2.80479931 133.36327743 -2.78636881 132.45308222 C-1.89190759 88.30131976 -0.96540618 44.15026962 0 0 Z M381 765 C361.84526734 784.8524216 348.83459575 812.828178 336 837 C335.26620117 838.37502686 335.26620117 838.37502686 334.51757812 839.77783203 C301.96831806 899.10809473 301.96831806 899.10809473 288.6875 964.5625 C288.65849609 965.39974609 288.62949219 966.23699219 288.59960938 967.09960938 C288.55823553 971.11923779 288.62429415 973.38330689 290.75390625 976.87890625 C299.44879059 985.08990138 312.02090407 992.19270893 324 994 C323.31035156 994.969375 322.62070313 995.93875 321.91015625 996.9375 C315.30913512 1006.3108082 309.24079314 1015.79811232 304 1026 C303.64760254 1026.68320313 303.29520508 1027.36640625 302.93212891 1028.0703125 C290.09767731 1053.49296307 281.98649542 1082.26529412 276 1110 C275.61835693 1111.76585449 275.61835693 1111.76585449 275.22900391 1113.56738281 C272.4572603 1126.7055527 270.19900142 1139.83542875 268.609375 1153.16796875 C268.4937471 1154.13734375 268.3781192 1155.10671875 268.25898743 1156.10546875 C268.14234238 1157.08435059 268.02569733 1158.06323242 267.90551758 1159.07177734 C265.42082832 1179.88335955 262.01118742 1199.17702287 255 1219 C254.4119458 1220.67449219 254.4119458 1220.67449219 253.81201172 1222.3828125 C240.60419427 1259.37986409 222.8604275 1295.14122438 203 1329 C201.910095 1330.8749644 200.82025209 1332.74996489 199.73046875 1334.625 C198.63401284 1336.50070219 197.53639501 1338.37572574 196.4375 1340.25 C195.73318848 1341.45317871 195.73318848 1341.45317871 195.01464844 1342.68066406 C185.79267224 1358.2609176 175.84786208 1373.39429901 165.79101562 1388.44384766 C163.99783545 1391.12824033 162.20964175 1393.81590613 160.421875 1396.50390625 C150.88773998 1410.81124021 141.11011184 1424.93345806 130.875 1438.75 C130.29226318 1439.53874512 129.70952637 1440.32749023 129.10913086 1441.14013672 C124.15633454 1447.82596947 119.11201618 1454.43519059 114 1461 C113.28457031 1461.92167969 112.56914063 1462.84335938 111.83203125 1463.79296875 C110.22357998 1465.86372936 108.61311044 1467.93286841 107 1470 C108.49368515 1473.48029121 110.47917418 1475.72618348 113.15078735 1478.39129639 C114.02019455 1479.26345291 114.88960175 1480.13560944 115.78535461 1481.03419495 C116.75085363 1481.9926163 117.71644827 1482.95094133 118.68212891 1483.90917969 C119.69761894 1484.92410545 120.71266852 1485.93947208 121.72731018 1486.95524597 C124.4809079 1489.70941754 127.24062883 1492.45737879 130.00148439 1495.20427227 C132.88651097 1498.076797 135.76587542 1500.95498586 138.64584351 1503.83258057 C144.09937878 1509.27989947 149.55799229 1514.72210002 155.01844537 1520.16248345 C161.2351334 1526.35681738 167.44614388 1532.55683076 173.65668225 1538.75732946 C186.43147778 1551.51121944 199.21339139 1564.257954 212 1577 C216.05261987 1573.00090688 216.05261987 1573.00090688 219.65625 1568.609375 C220.11443115 1567.9913501 220.5726123 1567.3733252 221.04467773 1566.73657227 C221.76506226 1565.75321899 221.76506226 1565.75321899 222.5 1564.75 C223.56305943 1563.31585546 224.62688736 1561.88228032 225.69140625 1560.44921875 C226.50955811 1559.34586182 226.50955811 1559.34586182 227.34423828 1558.22021484 C230.01121622 1554.64405775 232.72293432 1551.10259563 235.4375 1547.5625 C235.97697266 1546.85834961 236.51644531 1546.15419922 237.07226562 1545.42871094 C238.16757695 1543.99933618 239.26311745 1542.570137 240.35888672 1541.14111328 C243.07575428 1537.59649434 245.78763701 1534.04806623 248.5 1530.5 C249.58330916 1529.08331485 250.6666425 1527.66664819 251.75 1526.25 C252.28625 1525.54875 252.8225 1524.8475 253.375 1524.125 C271.25 1500.75 271.25 1500.75 272.87524414 1498.62475586 C273.95786035 1497.20897692 275.04037998 1495.79312412 276.12280273 1494.37719727 C278.84131841 1490.82133461 281.56153385 1487.26679681 284.28515625 1483.71484375 C287.00114266 1480.17258656 289.70833691 1476.62371184 292.41357422 1473.07324219 C293.96603479 1471.0443879 295.53085865 1469.02560515 297.09765625 1467.0078125 C303.33477794 1458.91627608 308.85477278 1450.60154348 314.08984375 1441.83203125 C317.2709659 1436.51038201 320.59771478 1431.28557827 323.9375 1426.0625 C325.13153394 1424.19272336 326.32554449 1422.32293177 327.51953125 1420.453125 C328.39472412 1419.08317383 328.39472412 1419.08317383 329.28759766 1417.68554688 C331.91245258 1413.56900794 334.52000075 1409.44162334 337.125 1405.3125 C337.61218506 1404.54043213 338.09937012 1403.76836426 338.60131836 1402.97290039 C339.57839666 1401.42422235 340.55536657 1399.87547591 341.53222656 1398.32666016 C344.01983357 1394.38339755 346.51006414 1390.44179232 349 1386.5 C350.00001224 1384.9166744 351.00001225 1383.33334107 352 1381.75 C370 1353.25 370 1353.25 371.49951172 1350.87695312 C372.50255965 1349.28800509 373.50418035 1347.69815523 374.50439453 1346.10742188 C376.94706206 1342.22644442 379.40971355 1338.36255307 381.9296875 1334.53125 C389.91660391 1322.3025293 396.60866573 1309.5417851 403.20898438 1296.52148438 C406.14622684 1290.74629554 409.13741401 1284.99925821 412.125 1279.25 C413.29561614 1276.99220991 414.46618962 1274.7343977 415.63671875 1272.4765625 C419.20927887 1265.59222794 422.79948667 1258.71717332 426.39111328 1251.84277344 C430.77296214 1243.44916919 435.12165948 1235.0385518 439.46798706 1226.62652588 C444.1041113 1217.65443175 448.76046511 1208.69319618 453.44140625 1199.74438477 C456.19659257 1194.47233573 458.93521784 1189.19209806 461.65625 1183.90234375 C486.80700437 1135.0150259 486.80700437 1135.0150259 505 1116 C505.87527344 1115.071875 506.75054688 1114.14375 507.65234375 1113.1875 C519.7944887 1100.63526793 535.19055824 1087.52267117 552 1082 C552.81082031 1081.73316406 553.62164063 1081.46632813 554.45703125 1081.19140625 C557.27634543 1080.56344841 559.16786281 1080.40399645 562 1081 C574.70151589 1089.98240764 582.51198162 1109.25711509 589 1123 C589.37592285 1123.77988281 589.7518457 1124.55976562 590.13916016 1125.36328125 C597.89450112 1141.48981916 604.11473942 1158.12097087 610 1175 C610.3602829 1176.0299408 610.3602829 1176.0299408 610.72784424 1177.08068848 C617.16211517 1195.49965227 623.02485966 1214.04953229 628.375 1232.8125 C628.75812347 1234.15516937 628.75812347 1234.15516937 629.14898682 1235.52496338 C631.50646462 1243.81590241 633.82532405 1252.10662675 635.83984375 1260.48828125 C636.09781738 1261.55135498 636.35579102 1262.61442871 636.62158203 1263.7097168 C637.05855264 1265.55348571 637.47501975 1267.40234046 637.86279297 1269.25708008 C639.36275446 1275.66996836 642.41764287 1279.37000665 647 1284 C647.94276877 1285.02893159 648.8818916 1286.06122221 649.81640625 1287.09765625 C650.73058865 1288.08703115 651.64598472 1289.07528579 652.5625 1290.0625 C653.06716797 1290.60777344 653.57183594 1291.15304687 654.09179688 1291.71484375 C658.64289414 1296.62713921 663.21481208 1301.52002774 667.78735352 1306.41235352 C672.0299586 1310.95370895 676.25026207 1315.51499037 680.4609375 1320.0859375 C684.88319228 1324.88256306 689.33610338 1329.65020791 693.79125977 1334.41625977 C697.52183591 1338.40953086 701.23627106 1342.4170276 704.9375 1346.4375 C709.43099894 1351.31753649 713.95854079 1356.16458034 718.5 1361 C723.52983821 1366.35541055 728.53559591 1371.73138854 733.51171875 1377.13671875 C737.32337939 1381.27451078 741.15831459 1385.39008291 745 1389.5 C754.74495427 1399.92909202 764.41765674 1410.42126264 774 1421 C785.26450365 1417.00962232 794.46262336 1408.02728181 803 1400 C804.34826108 1398.82651351 805.70193638 1397.6592002 807.0625 1396.5 C814.63519019 1389.9049317 821.49869934 1382.63870515 828 1375 C828.91454028 1373.94850124 829.82998278 1372.89778684 830.74609375 1371.84765625 C837.46788686 1364.11710448 843.89522385 1356.22837093 850 1348 C850.4748584 1347.36175293 850.9497168 1346.72350586 851.43896484 1346.06591797 C905.2985971 1273.36499179 944.20443725 1190.34359527 988 1072 C988.36871216 1070.91223267 988.36871216 1070.91223267 988.74487305 1069.80249023 C1004.52879876 1023.22041369 1019.17353482 974.48579087 1021 925 C1021.04125 923.89269531 1021.0825 922.78539062 1021.125 921.64453125 C1021.43195825 904.97286124 1019.82541268 887.62719852 1012.92529297 872.28173828 C1012.5648288 871.47793732 1012.20436462 870.67413635 1011.83297729 869.84597778 C1011.55809479 869.23680511 1011.28321228 868.62763245 1011 868 C1009.82050781 868.17015625 1008.64101562 868.3403125 1007.42578125 868.515625 C943.74079236 877.67515255 880.01081697 885.7142808 815.8125 890.25 C814.63624054 890.33326538 813.45998108 890.41653076 812.24807739 890.50231934 C787.21553051 892.25459982 762.26926782 893.18899216 737.17626953 893.18530273 C734.40634578 893.18522186 731.63658884 893.19212621 728.86669922 893.20581055 C713.51363812 893.28028496 698.22869814 893.06310342 682.90234375 892.09765625 C681.6330603 892.01783005 680.36377686 891.93800385 679.05603027 891.85575867 C621.35909127 887.90489235 621.35909127 887.90489235 601 876 C600 874 600 874 600.98803711 870.80712891 C601.49380412 869.4441956 602.00748483 868.08418327 602.52734375 866.7265625 C602.79511124 866.00640961 603.06287872 865.28625671 603.33876038 864.54428101 C604.1978133 862.23508901 605.06661764 859.92975453 605.9375 857.625 C606.80443987 855.32726083 607.6690183 853.02879128 608.52552795 850.72714233 C609.05906413 849.29352192 609.59859776 847.86211599 610.14476013 846.43325806 C611.41118567 843.03190511 612 840.68563662 612 837 C610.92258545 836.54898926 609.8451709 836.09797852 608.73510742 835.63330078 C593.63541667 829.3125 578.53572591 822.99169922 563.43603516 816.67089844 C562.10294312 816.11286026 562.10294312 816.11286026 560.74291992 815.54354858 C558.96997003 814.80138304 557.19702081 814.05921589 555.42407227 813.31704712 C551.00847938 811.46865112 546.59287458 809.6202836 542.17724609 807.77197266 C532.02846537 803.52381555 521.87991667 799.27510532 511.73190308 795.02511597 C507.11406165 793.09128942 502.49589995 791.15823575 497.87695312 789.22705078 C496.13280222 788.49774594 494.38866138 787.76841703 492.64453125 787.0390625 C491.80858429 786.68949493 490.97263733 786.33992737 490.11135864 785.97976685 C485.70897031 784.13761646 481.30959247 782.2886684 476.91508484 780.42779541 C475.15522765 779.68273382 473.39440891 778.93994465 471.63354492 778.19726562 C469.62274552 777.34876624 467.61363347 776.49625052 465.60668945 775.63867188 C464.75679443 775.28095703 463.90689941 774.92324219 463.03125 774.5546875 C462.31517578 774.25030762 461.59910156 773.94592773 460.86132812 773.63232422 C458.85420638 772.83916887 458.85420638 772.83916887 456 773 C454.35181641 775.08032493 454.35181641 775.08032493 452.86328125 777.8125 C451.99799805 779.30136719 451.99799805 779.30136719 451.11523438 780.8203125 C450.52033203 781.86960937 449.92542969 782.91890625 449.3125 784 C448.70599609 785.04929687 448.09949219 786.09859375 447.47460938 787.1796875 C445.97300767 789.7808873 444.48208212 792.38764474 443 795 C438.91581121 793.73599814 435.28171961 792.2179992 431.53515625 790.1640625 C430.4985083 789.59977539 429.46186035 789.03548828 428.39379883 788.45410156 C427.29447021 787.85049805 426.1951416 787.24689453 425.0625 786.625 C422.73492606 785.36094755 420.40683788 784.09788599 418.078125 782.8359375 C417.19541679 782.3567688 417.19541679 782.3567688 416.2948761 781.86791992 C410.31978501 778.62559624 404.32573743 775.42096449 398.3125 772.25 C397.37607666 771.74936035 396.43965332 771.2487207 395.47485352 770.73291016 C390.69977825 768.22439349 386.25665297 766.23685952 381 765 Z " fill="#FFFFFF" transform="translate(1293,93)"/>
<path d="M0 0 C17.93392936 0.92994189 35.83930142 1.3907451 53.79598507 1.55921444 C55.74049241 1.57777415 55.74049241 1.57777415 57.72428272 1.59670879 C64.314434 1.65765405 70.90462244 1.71188623 77.49485224 1.76354647 C90.85559187 1.87172842 104.21552216 2.03871351 117.5752705 2.23195538 C118.24200678 2.24155253 118.90874305 2.25114967 119.59568346 2.26103764 C151.59959059 2.7267393 183.57423636 3.85918245 215.55768093 5.05801663 C226.57837074 5.47072233 237.59916107 5.88038139 248.62042508 6.27749905 C249.30447928 6.3021499 249.98853348 6.32680075 250.6933166 6.3521986 C282.82985034 7.50607998 314.97160734 8.16846162 347.12353918 8.71376218 C349.22496658 8.74941129 351.32639037 8.78526681 353.42781353 8.82116443 C367.36057284 9.05884111 381.29346043 9.28825764 395.22644745 9.51215909 C423.58043022 9.9678786 451.93338057 10.47584392 480.28589138 11.01535305 C481.58796073 11.04006525 482.89003009 11.06477744 484.23155608 11.09023849 C570.39774615 12.73153293 656.53202856 15.58174411 742.65826687 18.63711819 C742.72380094 107.33282349 742.78648696 196.0285328 742.82763943 297.1596249 C742.82819723 298.54881789 742.82875504 299.93801088 742.82931285 301.32720386 C742.8410057 330.49210487 742.85187233 359.65700615 742.86178558 388.82190781 C742.86676684 403.47422951 742.87190672 418.12655114 742.87719664 432.77887273 C742.87799364 434.98900454 742.87878611 437.19913635 742.87957839 439.40926815 C742.8918062 473.40839954 742.90741848 507.40752518 742.93292508 541.40664944 C742.93347267 542.13665624 742.93402027 542.86666305 742.93458445 543.61879127 C742.94343301 555.38730526 742.95256781 567.15581904 742.96174063 578.92433278 C742.9881839 612.85601143 743.01248128 646.78768562 743.02282605 680.71937355 C743.02314726 681.76791153 743.02314726 681.76791153 743.02347496 682.83763209 C743.02813998 698.18965484 743.03171849 713.54167763 743.0342708 728.89370087 C743.03531717 735.07254393 743.03651966 741.25138697 743.03777584 747.43022999 C743.03790955 748.10644182 743.03804326 748.78265364 743.03818102 749.47935674 C743.04255362 771.20134717 743.05959281 792.92330461 743.08339571 814.64528175 C743.10801982 837.17179344 743.11829977 859.6982705 743.11227238 882.22479559 C743.10924303 895.1904856 743.11722429 908.15605618 743.14145704 921.1217245 C743.15657567 929.80895508 743.15683886 938.49610843 743.14559413 947.18334457 C743.13961713 952.11645715 743.13955323 957.04934568 743.1577996 961.98243321 C743.39826762 1031.13807289 729.65637528 1101.01545915 699.65826687 1163.63711819 C699.29926297 1164.38993069 698.94025906 1165.14274319 698.57037625 1165.91836819 C696.67352188 1169.86440557 694.70948391 1173.77016707 692.68707547 1177.65323147 C691.56527439 1179.81643876 690.46547495 1181.99018317 689.36529812 1184.16446194 C675.01713826 1212.2654703 656.49012543 1237.99867714 635.65826687 1261.63711819 C634.83197781 1262.57684475 634.00568875 1263.51657132 633.15436062 1264.48477444 C621.7130483 1277.21524872 609.74574398 1290.14928765 596.19732937 1300.65664944 C593.79361629 1302.53154565 591.49216292 1304.496701 589.19488797 1306.49966702 C562.76100844 1329.43458875 531.76054616 1346.92131373 500.65826687 1362.63711819 C499.61573758 1363.16643948 498.57320828 1363.69576077 497.49908718 1364.2411221 C452.8892686 1386.74776406 406.08135682 1404.84470571 357.52545437 1416.70352444 C356.74893961 1416.89328476 355.97242485 1417.08304509 355.17237934 1417.27855572 C334.1524342 1422.38823247 312.96252163 1426.69773634 291.77725491 1431.05783352 C279.58473118 1433.56815153 267.39879541 1436.11021754 255.21295437 1438.65274319 C253.37815423 1439.03543047 253.37815423 1439.03543047 251.50628743 1439.42584881 C159.73982985 1458.57633805 68.29871051 1479.59837701 -301.34173313 1607.63711819 C-302.36677951 1608.14142361 -302.36677951 1608.14142361 -303.41253391 1608.65591702 C-323.63947472 1618.61248211 -343.71601016 1628.74857305 -363.24017063 1640.03946194 C-364.69459568 1640.87900418 -364.69459568 1640.87900418 -366.17840305 1641.73550686 C-368.0342225 1642.81066475 -369.88617864 1643.89252805 -371.73357883 1644.98208889 C-372.96854099 1645.70078152 -372.96854099 1645.70078152 -374.22845188 1646.43399319 C-374.95250217 1646.86035061 -375.67655246 1647.28670803 -376.42254367 1647.72598538 C-378.34173313 1648.63711819 -378.34173313 1648.63711819 -381.34173313 1648.63711819 C-382.33218741 1605.2216013 -383.2810151 1561.8052191 -384.19817844 1518.38809475 C-384.22512381 1517.11279809 -384.22512381 1517.11279809 -384.25261354 1515.81173785 C-386.18302764 1424.39359012 -387.84133071 1332.97517372 -388.96349826 1241.54330716 C-388.98859936 1239.50364133 -389.01370065 1237.46397551 -389.03880212 1235.42430969 C-389.56531724 1192.57532049 -390.05427743 1149.72596843 -390.50007519 1106.87606432 C-390.72418064 1085.33897884 -390.95547299 1063.80197525 -391.19357261 1042.26503991 C-391.22943873 1039.01704563 -391.26509942 1035.76904913 -391.30075156 1032.52105249 C-391.84910904 982.72859739 -392.54791388 932.9441177 -393.70135227 883.16165432 C-393.73831494 881.56614895 -393.73831494 881.56614895 -393.77602433 879.93841114 C-394.17406323 862.79783732 -394.58518513 845.65757726 -394.99805241 828.51735523 C-396.19263917 778.91563918 -397.28427371 729.32031474 -397.74689594 679.70559582 C-397.75653225 678.67712834 -397.76616856 677.64866086 -397.77609689 676.58902769 C-397.98633831 653.96664993 -398.14722356 631.34419656 -398.26191005 608.72114112 C-398.3089763 599.60703843 -398.36309138 590.49298006 -398.41963688 581.37893185 C-398.42565376 580.38167644 -398.43167065 579.38442104 -398.43786987 578.35694577 C-398.61470357 549.56950924 -399.20477049 520.82008403 -400.17636218 492.04877099 C-406.23008249 312.71943648 -406.23008249 312.71943648 -320.15155913 104.81882048 C-242.72368604 22.7886384 -151.58531239 -5.06703137 0 0 Z M-24.57017103 109.41841206 C-29.27767198 110.05348527 -33.98562742 110.68517375 -38.69350925 111.31741604 C-46.58276268 112.37745519 -54.47163471 113.44029708 -62.36028782 114.50479397 C-71.45765499 115.73235366 -80.55565552 116.95513151 -89.65399578 118.17545637 C-98.4525966 119.35571466 -107.25070475 120.53960841 -116.04860798 121.72505459 C-119.77465261 122.22702914 -123.50086905 122.72769878 -127.22723499 123.22728238 C-131.61251325 123.81535202 -135.99735101 124.40660554 -140.38187709 125.00025639 C-141.98365041 125.21661639 -143.5855695 125.43190055 -145.18764797 125.64598927 C-148.72438647 126.11890839 -152.25804595 126.60303918 -155.78756252 127.12733826 C-157.91695502 127.43276017 -160.05276379 127.70175931 -162.19511333 127.89652428 C-170.11191457 128.85570891 -174.76250726 133.64391925 -180.35589328 138.96548733 C-181.41703005 139.94851277 -182.47944028 140.93016503 -183.54301181 141.91055569 C-187.01988902 145.13223789 -190.45377549 148.39770552 -193.88079563 151.67227444 C-194.47032504 152.23477674 -195.05985446 152.79727903 -195.6672484 153.37682685 C-201.26371979 158.72078069 -206.84289641 164.0822709 -212.38405529 169.48359284 C-218.75813892 175.69472842 -225.16837464 181.85052325 -231.71770969 187.87710842 C-261.59933954 215.42181452 -284.23075691 236.7173396 -286.04895416 279.41613659 C-286.14406509 282.78441167 -286.18372138 286.14904629 -286.20818821 289.51849636 C-286.29313735 297.17599525 -287.41155342 304.54199448 -288.77328411 312.06097111 C-289.3528843 315.30901952 -289.84482784 318.57024352 -290.34734836 321.83096585 C-290.54093937 323.05712613 -290.73453037 324.2832864 -290.93398777 325.54660305 C-296.38254895 360.12855523 -301.54383372 394.72388377 -304.34173313 429.63711819 C-304.43744602 430.82571438 -304.53315891 432.01431057 -304.63177219 433.23892483 C-305.49354013 445.25966093 -305.58494406 457.27655066 -305.59173313 469.32461819 C-305.59240787 470.40605099 -305.59308262 471.48748379 -305.59377781 472.60168728 C-305.54825099 518.6769519 -299.64838645 570.27367332 -268.34173313 606.63711819 C-267.57989719 607.52399319 -266.81806125 608.41086819 -266.03313938 609.32461819 C-263.84445331 611.80488301 -261.60763331 614.22748553 -259.34173313 616.63711819 C-258.81579563 617.22750882 -258.28985813 617.81789944 -257.74798313 618.42618069 C-230.88766192 647.34213873 -187.17699657 658.1383734 -149.34173313 661.63711819 C-148.184155 661.74797757 -147.02657688 661.85883694 -145.83392063 661.97305569 C-112.44208903 664.5961932 -53.70329646 668.31789986 -22.34173313 652.63711819 C-22.50028782 653.61809475 -22.6588425 654.59907132 -22.82220188 655.60977444 C-25.37220737 673.65910281 -22.6881997 691.34905565 -12.34173313 706.63711819 C-1.06060067 721.43444778 14.16744783 730.67661461 32.65826687 733.63711819 C34.57853484 733.58368789 36.49769985 733.47125344 38.41217312 733.31289944 C57.45699805 732.17113343 57.45699805 732.17113343 62.79107937 736.02383694 C65.895301 738.89053114 68.2659387 742.16673909 70.65826687 745.63711819 C71.8054157 746.98728057 72.96968868 748.32328001 74.15826687 749.63711819 C74.68420437 750.25586819 75.21014187 750.87461819 75.75201687 751.51211819 C78.280787 754.33107506 80.96492416 756.97628488 83.65826687 759.63711819 C87.49852724 763.43577036 91.19227339 767.27353539 94.69342312 771.39102444 C96.84851389 773.85459739 99.07710002 776.23733572 101.3176907 778.62295803 C106.62669045 784.27571684 111.70697558 790.01295979 116.55670437 796.07071194 C118.63828114 798.61271182 120.80865067 801.03241154 123.03326687 803.44961819 C128.04406104 808.96235719 132.59109688 814.79884408 137.13971218 820.69034085 C138.68583217 822.67245672 140.2584113 824.63078044 141.83795437 826.58633694 C191.97290299 889.09910765 191.97290299 889.09910765 190.65826687 924.51211819 C189.93689496 931.02049593 187.74610525 936.63626118 182.99420437 941.25430569 C181.42666287 942.55639327 181.42666287 942.55639327 181.65826687 944.63711819 C180.32493354 945.30378486 178.99160021 945.97045152 177.65826687 946.63711819 C176.17326687 947.41055569 176.17326687 947.41055569 174.65826687 948.19961819 C166.0822034 952.30898194 156.08251508 951.37088604 147.11529812 948.86758694 C134.07981676 944.22783934 121.93335266 937.61401034 110.65826687 929.63711819 C109.55998562 928.8612637 109.55998562 928.8612637 108.43951687 928.06973538 C98.32749414 920.87240341 88.6433033 913.33220061 79.34527859 905.11368069 C77.59276023 903.57978329 75.81901897 902.07431862 74.03717312 900.57461819 C67.79622712 895.31516859 61.7946348 889.98282514 56.13482937 884.08633694 C54.12021463 882.09396558 52.08001303 880.2490246 49.93561062 878.40274319 C45.28351385 874.36907992 40.93704253 870.06298686 36.59576687 865.69961819 C35.83199734 864.93971585 35.06822781 864.1798135 34.28131375 863.39688382 C30.08311131 859.19149883 26.06938597 854.8926185 22.1926907 850.38980374 C20.23844156 848.15757548 18.16129812 846.07824308 16.03326687 844.01211819 C13.50041235 841.53060531 11.16415968 839.09396259 9.03326687 836.26211819 C5.47351989 832.327661 2.23881382 830.95820007 -2.88470188 830.32071194 C-13.30901292 829.86492401 -21.67735681 833.73758608 -29.34173313 840.63711819 C-36.44887399 847.51171457 -40.92752844 855.42404794 -41.59173313 865.38711819 C-41.47033787 872.80925003 -38.39215668 878.33529972 -33.23235813 883.55118069 C-32.71457798 884.09295956 -32.19679783 884.63473843 -31.66332737 885.19293484 C-29.90406382 887.0224856 -28.12499297 888.83096027 -26.34173313 890.63711819 C-25.68890354 891.30303982 -25.03607395 891.96896145 -24.36346164 892.65506253 C-20.05154586 897.04955562 -15.70909522 901.41246912 -11.34954563 905.75967678 C-9.07753943 908.02627812 -6.81098869 910.29823778 -4.54485813 912.57071194 C-3.07642896 914.0384809 -1.60768993 915.50593995 -0.13860813 916.97305569 C0.52616543 917.63985348 1.19093899 918.30665127 1.8758572 918.99365506 C5.73643348 922.83525761 9.70060197 926.49409812 13.84057888 930.03351101 C15.69205404 931.66692602 17.43010554 933.37445595 19.15826687 935.13711819 C22.14699024 938.17306744 25.27533166 940.98220478 28.50201687 943.76211819 C30.85789645 945.81070913 33.16334147 947.90914821 35.47076687 950.01211819 C39.73653369 953.85713411 44.10742639 957.53472664 48.57623562 961.14102444 C50.80343733 962.94480377 53.01146796 964.76290649 55.20904812 966.60196194 C89.31504891 994.98653381 129.56812742 1021.40459646 175.65826687 1017.63711819 C180.8673047 1016.91822624 185.73104076 1015.46001137 190.65826687 1013.63711819 C191.66244656 1013.29809475 192.66662625 1012.95907132 193.70123562 1012.60977444 C217.95658291 1003.60613826 239.78448601 982.38467992 251.22857937 959.49649319 C265.18107751 927.58119806 258.2567502 893.29192637 246.15826687 862.07461819 C238.16829063 842.24338219 227.62952353 823.325766 215.65826687 805.63711819 C215.10670925 804.82194729 214.55515164 804.00677639 213.98688015 803.16690335 C203.27379555 787.43725445 191.88085421 772.22743187 179.65826687 757.63711819 C179.23335965 757.12729397 178.80845242 756.61746975 178.37066922 756.09219632 C172.7717808 749.37917141 167.06911678 742.7947468 161.14264187 736.36758694 C159.17193131 734.20166448 157.23907722 732.01487466 155.31842312 729.80508694 C146.02336431 719.15486301 136.13385162 709.02200473 126.15826687 699.01211819 C125.42954373 698.27880276 124.70082058 697.54548733 123.95001492 696.78995022 C119.8747505 692.72633341 115.72789765 688.92875055 111.207095 685.36221585 C109.23224527 683.16261178 108.95590643 681.54829738 108.65826687 678.63711819 C108.95303294 676.63107131 109.28986721 674.6309569 109.65826687 672.63711819 C110.70177864 655.11816105 107.13188871 638.78860431 95.28326687 625.26211819 C93.76218735 623.70013569 92.22101317 622.15741298 90.65826687 620.63711819 C89.97119656 619.92942288 89.28412625 619.22172757 88.57623562 618.49258694 C75.20461093 605.51789359 57.449738 601.20741903 39.35895047 601.34439358 C35.60440716 601.42740599 32.29738309 601.68651044 28.65826687 602.63711819 C34.61324052 595.52420337 41.14885581 589.01746333 47.71686062 582.48086819 C48.8729285 581.32666925 50.02877293 580.17224647 51.18440518 579.01761135 C54.20210018 576.00370411 57.22278774 572.99281416 60.24414334 569.98257717 C63.33649834 566.90051745 66.42596555 563.81556587 69.51568875 560.73086819 C75.56041799 554.69681015 81.60831693 548.66594176 87.65826687 542.63711819 C91.3300109 544.1884826 93.72756408 546.41886148 96.56674656 549.19056305 C97.28989283 549.8927214 97.28989283 549.8927214 98.02764812 550.60906476 C99.64836586 552.18524947 101.26207653 553.76841763 102.87582669 555.35173306 C104.04578362 556.4928975 105.21611076 557.6336825 106.38677666 558.77411965 C109.6085776 561.91558113 112.82391337 565.06358824 116.03796157 568.21297881 C118.09463347 570.22724882 120.15311435 572.23965164 122.21222958 574.25142369 C149.2179111 600.6364545 176.08992243 627.15745225 202.92348179 653.71739563 C206.33653691 657.09502316 209.74993727 660.47230135 213.16363797 663.84927639 C214.0119702 664.68850952 214.86030243 665.52774265 215.7343417 666.39240708 C229.39384839 679.90126474 243.12354135 693.3364614 256.88240527 706.74402652 C271.05668342 720.55942976 285.15358028 734.45042901 299.18393013 748.41198948 C307.04358952 756.22902916 314.93268127 764.00991261 322.91135296 771.70560154 C357.86034111 805.45074214 386.23464036 833.37726107 394.57029805 882.80357537 C395.65467592 888.54544187 397.54635879 892.18224818 402.47076687 895.57461819 C406.55762147 896.93690305 408.52432927 896.92006434 412.65826687 895.63711819 C420.27066324 890.1254106 426.73777232 882.7130513 433.37652859 876.07998928 C434.64519434 874.81595981 435.91405447 873.55212541 437.18309292 872.28847012 C440.60871439 868.87588521 444.0310695 865.46004372 447.45240816 862.04316553 C449.59145488 859.90706 451.73108291 857.7715384 453.87088665 855.63619122 C460.57084434 848.94987709 467.26881997 842.26158695 473.96389553 835.57038423 C481.68496973 827.8538019 489.41256058 820.14382427 497.14582321 812.43945715 C503.13257384 806.47430069 509.11356901 800.5034136 515.09020135 794.52811953 C518.65689072 790.96247857 522.22597298 787.39931363 525.80105481 783.84208569 C529.15817483 780.50140999 532.50810444 777.15368991 535.85261235 773.80038914 C537.08114579 772.57108373 538.31225167 771.344343 539.54609379 770.12036595 C541.22916711 768.4499648 542.90274186 766.77058625 544.57425198 765.08862576 C545.06490167 764.60603247 545.55555136 764.12343919 546.06106922 763.62622187 C548.81659695 760.83019853 550.57533502 758.42725941 551.65826687 754.63711819 C551.57077942 749.82530832 550.59501253 746.72569982 547.40118679 743.08023342 C543.79880528 740.09750796 539.27181181 739.14986425 534.84576687 737.88711819 C533.77076931 737.55913235 532.69577175 737.23114651 531.58819851 736.89322171 C527.26733293 735.5776432 522.93488992 734.30307971 518.59991726 733.03500637 C514.29916263 731.77642143 510.00399493 730.50116934 505.71408352 729.20608792 C503.63848131 728.58735136 501.55669036 727.99418966 499.47345242 727.40176663 C498.16881111 727.01136849 496.86451378 726.61981842 495.56061062 726.22696194 C493.8511929 725.7299075 493.8511929 725.7299075 492.10724148 725.22281155 C482.95385667 721.01447048 475.99137717 712.11006836 468.95245633 705.05156216 C467.77844653 703.877989 466.60421677 702.70463586 465.42978749 701.53148249 C462.21897072 698.32289246 459.01126476 695.11120844 455.80407581 691.89899275 C452.33906034 688.42964674 448.8711429 684.96320361 445.40358242 681.49640164 C439.40141246 675.49475526 433.40107179 669.49128505 427.40198025 663.48656163 C418.72836634 654.80481033 410.05198261 646.12583147 401.37492689 637.44752028 C387.29602915 623.36643554 373.21936464 609.28312047 359.14410672 595.19839749 C345.47373095 581.5188385 331.80230216 567.84033333 318.12945828 554.16324124 C317.28624032 553.31976055 316.44302236 552.47627987 315.57425234 551.60723916 C311.34394247 547.37562423 307.11361191 543.14402997 302.88327107 538.91244599 C267.80506222 503.8238755 232.7304785 468.73168303 197.65826687 433.63711819 C198.61282977 432.51631176 199.56841094 431.39637252 200.52441964 430.27679905 C201.32246405 429.34116019 201.32246405 429.34116019 202.13663056 428.38661954 C203.93319542 426.32101909 205.81980914 424.38267558 207.77667508 422.46866116 C208.52798199 421.73034054 209.27928891 420.99201992 210.0533627 420.23132595 C210.84723889 419.45515927 211.64111508 418.67899258 212.45904812 417.87930569 C214.17629909 416.18445316 215.89308113 414.4891254 217.60943875 412.79336819 C220.28371299 410.15602265 222.96082201 407.52184254 225.64630398 404.89590725 C240.04678874 390.90718017 240.04678874 390.90718017 251.65826687 374.63711819 C252.07326443 373.92974514 252.48826199 373.2223721 252.91583523 372.4935635 C272.48374373 336.8228478 266.86008358 285.76193039 256.16217312 248.19180569 C248.71658201 223.74438108 236.37291642 200.98372686 219.65826687 181.63711819 C218.97635281 180.84563382 218.29443875 180.05414944 217.59186062 179.23868069 C207.54138666 167.83975316 196.96125693 157.57622901 184.65826687 148.63711819 C184.00680691 148.16306546 183.35534695 147.68901272 182.68414578 147.20059475 C163.72581168 133.59856928 142.78781355 122.9933463 120.65826687 115.63711819 C119.74851101 115.33080471 118.83875515 115.02449124 117.90143093 114.70889553 C93.87034032 106.76627584 68.41924369 102.46881719 43.09576687 102.44961819 C42.27270047 102.4373721 41.44963406 102.425126 40.60162625 102.41250882 C18.86676986 102.36417333 -3.07601334 106.51611583 -24.57017103 109.41841206 Z " fill="#FFFFFF" transform="translate(1674.3417331278324,1813.362881809473)"/>
<path d="M0 0 C0.66 0 1.32 0 2 0 C2.99042534 45.00669176 3.93925755 90.0142192 4.85644531 135.02246094 C4.87440889 135.90379278 4.89237248 136.78512462 4.91088041 137.69316348 C6.84103823 232.44640273 8.49941493 327.19990175 9.62176514 421.96636963 C9.64686623 424.08008227 9.67196752 426.19379492 9.69706899 428.30750756 C10.22356771 472.7106486 10.71252979 517.11413965 11.15834207 561.51816324 C11.38245 583.83589774 11.61374246 606.15355325 11.85183948 628.47114292 C11.88770555 631.83689832 11.92336627 635.20265587 11.95901844 638.56841354 C12.50746735 690.17479782 13.20645744 741.77348897 14.35961914 793.37023926 C14.38426092 794.47293863 14.4089027 795.575638 14.4342912 796.7117525 C14.83233722 814.48161494 15.24345639 832.25117496 15.65631928 850.02069832 C16.8506778 901.43424977 17.94240116 952.84164526 18.40516281 1004.26773453 C18.41479912 1005.33343056 18.42443544 1006.39912659 18.43436376 1007.49711644 C18.64458981 1030.93660472 18.80548228 1054.37616594 18.92017692 1077.81630811 C18.96724414 1087.25914452 19.0213591 1096.70193815 19.07790375 1106.14472198 C19.08692908 1107.69457422 19.08692908 1107.69457422 19.09613674 1109.27573661 C19.27304833 1139.11502974 19.8634999 1168.9176862 20.83462905 1198.74143909 C26.88040763 1384.47514217 26.88040763 1384.47514217 -59.190174 1596.57937575 C-122.70078968 1663.74418752 -199.5966264 1699.78441558 -292.18044847 1702.67813987 C-321.53921191 1703.42079746 -350.83233775 1702.16503838 -380.14408068 1700.61176406 C-406.03155316 1699.25990583 -431.82380388 1699.16950265 -457.76318359 1699.02880859 C-525.61305145 1698.09559617 -593.43381572 1695.58251014 -661.25 1693.25 C-813.2975 1689.5375 -965.345 1685.825 -1122 1682 C-1122 1216.04 -1122 750.08 -1122 270 C-681.125 270.1875 -681.125 270.1875 -541.70751953 270.33276367 C-500.61314017 270.32296576 -500.61314017 270.32296576 -459.51876831 270.29853821 C-439.94530911 270.28732305 -420.37222331 270.31262056 -400.79881949 270.35543724 C-380.85129588 270.39817948 -360.90408149 270.39997838 -340.95654618 270.36207576 C-329.08797561 270.34073494 -317.22034714 270.34931358 -305.35187211 270.40265908 C-297.52077487 270.43487795 -289.69037348 270.42745057 -281.859314 270.38734725 C-277.39496615 270.36562918 -272.9324756 270.36150383 -268.46825194 270.40566695 C-264.39740425 270.4455873 -260.3299425 270.43473002 -256.25924807 270.38367847 C-254.79723963 270.37418594 -253.33496473 270.38305923 -251.87322649 270.41272613 C-245.70843585 270.52946469 -240.93176598 270.53256276 -235.97818767 266.6026511 C-233.44393801 263.84266332 -231.20497185 261.02608397 -229 258 C-227.82688305 256.63335439 -226.64258792 255.27603902 -225.4375 253.9375 C-224.88964844 253.30714844 -224.34179688 252.67679688 -223.77734375 252.02734375 C-221.70640513 249.66510827 -219.60487152 247.33204147 -217.5 245 C-214.81016569 242.01937279 -212.13689636 239.02754767 -209.5 236 C-206.10746907 232.10487189 -202.64805799 228.27217237 -199.1875 224.4375 C-197.27445851 222.30582519 -195.38112388 220.1598089 -193.5 218 C-190.10746907 214.10487189 -186.64805799 210.27217237 -183.1875 206.4375 C-181.27445851 204.30582519 -179.38112388 202.1598089 -177.5 200 C-174.10746907 196.10487189 -170.64805799 192.27217237 -167.1875 188.4375 C-165.27445851 186.30582519 -163.38112388 184.1598089 -161.5 182 C-158.10746907 178.10487189 -154.64805799 174.27217237 -151.1875 170.4375 C-149.27445851 168.30582519 -147.38112388 166.1598089 -145.5 164 C-142.10746907 160.10487189 -138.64805799 156.27217237 -135.1875 152.4375 C-133.27445851 150.30582519 -131.38112388 148.1598089 -129.5 146 C-126.10746907 142.10487189 -122.64805799 138.27217237 -119.1875 134.4375 C-117.27445851 132.30582519 -115.38112388 130.1598089 -113.5 128 C-110.10746907 124.10487189 -106.64805799 120.27217237 -103.1875 116.4375 C-101.27445851 114.30582519 -99.38112388 112.1598089 -97.5 110 C-94.10746907 106.10487189 -90.64805799 102.27217237 -87.1875 98.4375 C-85.27445851 96.30582519 -83.38112388 94.1598089 -81.5 92 C-78.10746907 88.10487189 -74.64805799 84.27217237 -71.1875 80.4375 C-69.27445851 78.30582519 -67.38112388 76.1598089 -65.5 74 C-62.10746907 70.10487189 -58.64805799 66.27217237 -55.1875 62.4375 C-53.27445851 60.30582519 -51.38112388 58.1598089 -49.5 56 C-46.10746907 52.10487189 -42.64805799 48.27217237 -39.1875 44.4375 C-37.27445851 42.30582519 -35.38112388 40.1598089 -33.5 38 C-30.10746907 34.10487189 -26.64805799 30.27217237 -23.1875 26.4375 C-20.70495732 23.67123816 -18.26059777 20.87380302 -15.8203125 18.0703125 C-12.94220362 14.79692687 -10.00827525 11.5740841 -7.08203125 8.34375 C-5.3487464 6.39258506 -3.69158828 4.41256175 -2.0625 2.375 C-1.381875 1.59125 -0.70125 0.8075 0 0 Z M-202.10083008 672.36108398 C-202.89013916 672.50578125 -203.67944824 672.65047852 -204.49267578 672.79956055 C-207.08597182 673.27643657 -209.67775189 673.76104792 -212.26953125 674.24609375 C-214.07453438 674.58035757 -215.87960438 674.91426046 -217.68473816 675.24781799 C-221.45867979 675.94639559 -225.23190369 676.6486954 -229.00463867 677.35375977 C-233.85040705 678.25913883 -238.69767394 679.156179 -243.54547596 680.05059719 C-247.26821239 680.73820446 -250.99022256 681.4296761 -254.71201134 682.12239265 C-256.50006723 682.45480601 -258.28832798 682.7861193 -260.07679176 683.1163311 C-262.56731401 683.57686831 -265.05683546 684.04246727 -267.54614258 684.50952148 C-268.29053085 684.64618729 -269.03491913 684.78285309 -269.80186462 684.92366028 C-273.18926049 685.3330724 -273.18926049 685.3330724 -276 687 C-276.14339099 688.92214568 -276.21750815 690.84947508 -276.26538086 692.77636719 C-276.29896194 694.03203995 -276.33254303 695.28771271 -276.36714172 696.58143616 C-276.39978981 697.98658056 -276.43235429 699.39172692 -276.46484375 700.796875 C-276.50239568 702.26774677 -276.54038513 703.73860742 -276.57878113 705.2094574 C-276.68226245 709.21894469 -276.77980514 713.22855765 -276.87638092 717.2382164 C-276.97835108 721.42883869 -277.08581479 725.61931954 -277.19287109 729.80981445 C-277.37281698 736.87591474 -277.54977513 743.94208438 -277.72509766 751.00830078 C-277.99938156 762.04612849 -278.28548152 773.08363583 -278.57421875 784.12109375 C-278.59754461 785.01330502 -278.62087048 785.90551628 -278.64490318 786.82476425 C-278.73731791 790.3595038 -278.82975294 793.89424282 -278.92226315 797.42897987 C-279.16089766 806.55026334 -279.39704134 815.67161089 -279.6328125 824.79296875 C-279.670588 826.25394186 -279.70836367 827.71491496 -279.74613953 829.17588806 C-279.83079268 832.45059119 -279.91541604 835.72529508 -280 839 C-280.87034882 839.24907104 -281.74069763 839.49814209 -282.63742065 839.75476074 C-285.93361709 840.69981699 -289.22889968 841.64794603 -292.52365112 842.59802246 C-293.93716735 843.00497684 -295.35101569 843.41077979 -296.76522827 843.81530762 C-308.61079581 847.20501574 -320.24850556 851.03472053 -331.81298828 855.29492188 C-334.18724102 856.06036527 -336.54741246 856.55397705 -339 857 C-339.27529541 856.41009277 -339.55059082 855.82018555 -339.83422852 855.21240234 C-340.94826244 853.0981876 -342.13192184 851.43683658 -343.65234375 849.6015625 C-344.17562256 848.96484619 -344.69890137 848.32812988 -345.23803711 847.67211914 C-345.79885986 846.99656982 -346.35968262 846.32102051 -346.9375 845.625 C-348.12596555 844.17917856 -349.31345009 842.73255022 -350.5 841.28515625 C-351.09296875 840.56215332 -351.6859375 839.83915039 -352.296875 839.09423828 C-354.71897891 836.11591154 -357.08084057 833.09267973 -359.4375 830.0625 C-364.11999801 824.05655613 -368.9508352 818.18147439 -373.80834961 812.31665039 C-377.43689479 807.92597675 -381.00145247 803.49479688 -384.5 799 C-389.69401636 792.33130542 -395.06406295 785.81547404 -400.44921875 779.30078125 C-408.59320143 769.44743024 -416.66432335 759.53808958 -424.48706055 749.42700195 C-426.53596304 746.79236134 -428.61139028 744.32814401 -431 742 C-437.14194509 743.88492786 -442.82400471 746.1996736 -448.54907227 749.10424805 C-449.7507328 749.70474976 -449.7507328 749.70474976 -450.97666931 750.31738281 C-453.59280455 751.62648558 -456.20459831 752.94400681 -458.81640625 754.26171875 C-460.64173992 755.17718667 -462.46734131 756.09212095 -464.29319763 757.00654602 C-469.07483521 759.40306462 -473.85282325 761.80677127 -478.63006592 764.21203613 C-483.51484907 766.66983086 -488.4030788 769.12075054 -493.29101562 771.57226562 C-502.86404652 776.37482005 -512.43323277 781.18498174 -522 786 C-520.87165563 791.3514489 -519.60484624 796.57714957 -517.93139648 801.79003906 C-517.73376205 802.40948804 -517.53612762 803.02893702 -517.33250427 803.66715717 C-516.68249555 805.70121746 -516.02685418 807.73341246 -515.37109375 809.765625 C-514.9038002 811.2236005 -514.43685414 812.68168741 -513.9702301 814.13987732 C-512.97811422 817.2377346 -511.98353196 820.33478495 -510.98706055 823.4312439 C-509.42810069 828.27643566 -507.87677137 833.12405132 -506.32617188 837.97192383 C-501.68386143 852.47755219 -497.01937152 866.97549786 -492.28691292 881.45198441 C-490.89250071 885.72163105 -489.5054894 889.99369174 -488.11697388 894.26525879 C-487.01706589 897.63521265 -485.90412463 901.00067968 -484.79077148 904.36621094 C-484.13070558 906.39367128 -483.47124299 908.42132819 -482.8125 910.44921875 C-482.5084877 911.35417587 -482.2044754 912.259133 -481.89125061 913.19151306 C-480.84129958 916.4588479 -480.03180478 919.37535631 -479.85693359 922.80981445 C-481.71848709 926.37666546 -485.04702112 927.77141414 -488.4765625 929.59375 C-490.03912414 930.46718051 -491.599279 931.34492814 -493.15722656 932.2265625 C-494.36312439 932.9067041 -494.36312439 932.9067041 -495.59338379 933.60058594 C-499.41931072 935.82530957 -503.09763835 938.25607592 -506.7734375 940.71875 C-507.48437561 941.1940918 -508.19531372 941.66943359 -508.92779541 942.15917969 C-511.07938558 943.60240806 -513.22728118 945.05101866 -515.375 946.5 C-516.86168206 947.49783864 -518.34866046 948.4952359 -519.8359375 949.4921875 C-522.52574871 951.29613547 -525.21396578 953.10239747 -527.89990234 954.91210938 C-533.97241909 959.00190015 -533.97241909 959.00190015 -535.87109375 958.87109375 C-538.72010002 957.70535357 -540.70294924 956.03979659 -543.0625 954.0625 C-544.03316406 953.24910156 -545.00382812 952.43570312 -546.00390625 951.59765625 C-549.81806545 948.29072552 -553.5360037 944.88731478 -557.25 941.46875 C-559.93737634 939.05621896 -562.68965444 936.7674379 -565.5 934.5 C-570.25595419 930.66280969 -574.75504801 926.60614899 -579.25 922.46875 C-581.93737634 920.05621896 -584.68965444 917.7674379 -587.5 915.5 C-592.25595419 911.66280969 -596.75504801 907.60614899 -601.25 903.46875 C-603.93737634 901.05621896 -606.68965444 898.7674379 -609.5 896.5 C-614.3490909 892.5874288 -618.95409609 888.4593056 -623.5390625 884.2421875 C-626.29174324 881.73418949 -629.10812552 879.34476309 -632 877 C-636.53375447 878.23647849 -638.80614739 880.68125006 -641.94140625 883.96484375 C-644.19909736 886.19683059 -646.58040692 888.14588614 -649.0625 890.125 C-653.56035419 893.74055906 -657.80093122 897.54275642 -662 901.5 C-666.05859808 905.32224411 -670.14298768 909.01439015 -674.5 912.5 C-680.19631705 917.06041926 -685.47319066 922.01734663 -690.79296875 927.00390625 C-695.58795243 931.49738822 -700.534714 935.78754595 -705.59375 939.98046875 C-706.23570312 940.51792725 -706.87765625 941.05538574 -707.5390625 941.60913086 C-708.82967541 942.68908721 -710.12643232 943.76175018 -711.4296875 944.82641602 C-713.00987509 946.15279891 -714.51222398 947.57073203 -716 949 C-716 953.10480377 -713.86695174 955.02763288 -711.375 958.0625 C-710.35738772 959.32887679 -709.34049481 960.59583188 -708.32421875 961.86328125 C-707.78200684 962.53568848 -707.23979492 963.2080957 -706.68115234 963.90087891 C-703.80985767 967.48603598 -701.00133883 971.11969826 -698.1875 974.75 C-696.9988607 976.28007439 -695.81005678 977.81002091 -694.62109375 979.33984375 C-694.02538574 980.1066748 -693.42967773 980.87350586 -692.81591797 981.66357422 C-690.99442692 984.00717053 -689.17131223 986.34949427 -687.34765625 988.69140625 C-682.21598719 995.28223556 -677.08731717 1001.87485003 -672 1008.5 C-668.63771465 1012.87814824 -665.26319773 1017.24641277 -661.87524414 1021.60473633 C-660.67340355 1023.15134735 -659.4733492 1024.6993482 -658.27514648 1026.2487793 C-655.44135247 1029.90492311 -652.58219589 1033.5286048 -649.625 1037.0859375 C-649.10671631 1037.71765869 -648.58843262 1038.34937988 -648.05444336 1039.00024414 C-647.08604654 1040.17655073 -646.10566485 1041.34312982 -645.11157227 1042.49780273 C-641.96992966 1046.34061496 -641.96992966 1046.34061496 -642.10864258 1049.38232422 C-643.25225661 1052.74080946 -644.89898211 1054.33824099 -647.4453125 1056.80078125 C-648.81429687 1058.14366211 -648.81429687 1058.14366211 -650.2109375 1059.51367188 C-651.1817852 1060.44714161 -652.15314251 1061.38008162 -653.125 1062.3125 C-659.34291169 1068.3553194 -665.37462611 1074.40118216 -671 1081 C-672.61967817 1082.77570221 -674.24411718 1084.54708307 -675.875 1086.3125 C-680.04717 1090.88352692 -683.99555044 1095.59213186 -687.8828125 1100.40625 C-690.83153963 1104.01871276 -693.90479866 1107.51327083 -697 1111 C-713.51299087 1105.35334463 -729.84610736 1099.24362003 -746.17602539 1093.09332275 C-749.58812312 1091.80871515 -753.00112745 1090.52652159 -756.4140625 1089.24414062 C-757.77576033 1088.73233961 -759.13745466 1088.22052931 -760.49914551 1087.70870972 C-763.20822132 1086.69050079 -765.91747287 1085.67276125 -768.62683105 1084.65530396 C-775.01898264 1082.25399888 -781.40887721 1079.8471263 -787.79202652 1077.42197514 C-790.76522552 1076.29303061 -793.73982874 1075.16781585 -796.7146225 1074.04308128 C-798.13462196 1073.50506612 -799.55395042 1072.96527633 -800.97257233 1072.4236393 C-802.9328545 1071.6753384 -804.89532905 1070.93309069 -806.85839844 1070.19213867 C-808.53310211 1069.55558601 -808.53310211 1069.55558601 -810.24163818 1068.90617371 C-812.99112389 1067.84394592 -812.99112389 1067.84394592 -816 1068 C-817.45751925 1069.56426033 -817.45751925 1069.56426033 -818.7734375 1071.73828125 C-819.33675781 1072.6003418 -819.90007812 1073.46240234 -820.48046875 1074.35058594 C-821.10566406 1075.32801758 -821.73085938 1076.30544922 -822.375 1077.3125 C-823.79752369 1079.4921955 -825.22210943 1081.67045619 -826.6484375 1083.84765625 C-827.04681824 1084.45801727 -827.44519897 1085.0683783 -827.85565186 1085.69723511 C-833.49398681 1094.31903375 -839.28549447 1102.83861593 -845.05499268 1111.37289429 C-848.18464292 1116.0023548 -851.31136666 1120.63378913 -854.4375 1125.265625 C-855.30539658 1126.55136665 -855.30539658 1126.55136665 -856.19082642 1127.86308289 C-860.48396494 1134.22657514 -864.75566839 1140.60384499 -869 1147 C-865.03687192 1151.90176368 -860.80253536 1156.06980011 -856.08203125 1160.23828125 C-852.27328519 1163.622279 -848.57894738 1167.12719841 -844.875 1170.625 C-844.14571289 1171.31319824 -843.41642578 1172.00139648 -842.66503906 1172.71044922 C-841.17481766 1174.11686605 -839.68474655 1175.52344213 -838.19482422 1176.93017578 C-834.78248383 1180.14817599 -831.36044396 1183.35578643 -827.9375 1186.5625 C-827.28257568 1187.17617432 -826.62765137 1187.78984863 -825.95288086 1188.42211914 C-824.63138603 1189.66035996 -823.3098529 1190.89855991 -821.98828125 1192.13671875 C-819.98119833 1194.01761964 -817.9748589 1195.89931032 -815.96875 1197.78125 C-812.64142951 1200.90257435 -809.3128768 1204.02257912 -805.98339844 1207.14160156 C-804.65038855 1208.39060098 -803.31771141 1209.63995561 -801.98535156 1210.88964844 C-800.65693132 1212.13540568 -799.32792063 1213.38053363 -797.99829102 1214.625 C-796.72631237 1215.81596601 -795.45591648 1217.00862512 -794.18725586 1218.203125 C-790.05440494 1222.07763786 -785.80348411 1225.75560032 -781.34375 1229.25390625 C-780 1231 -780 1231 -780.23339844 1233.24365234 C-781.10878383 1236.39113676 -782.38070224 1238.96588376 -783.921875 1241.84765625 C-784.83259766 1243.57109253 -784.83259766 1243.57109253 -785.76171875 1245.3293457 C-786.08575684 1245.93718903 -786.40979492 1246.54503235 -786.74365234 1247.17129517 C-797.469256 1267.32766296 -806.98695833 1288.02444172 -816 1309 C-831.24334941 1307.0061539 -846.41799574 1304.7067297 -861.5859375 1302.20703125 C-863.75163669 1301.85233986 -865.91737854 1301.4979088 -868.0831604 1301.14372253 C-873.70243089 1300.22406259 -879.32112659 1299.30093857 -884.93969727 1298.37701416 C-890.70553921 1297.42952869 -896.47193527 1296.48542781 -902.23828125 1295.54101562 C-913.49272278 1293.69726453 -924.74655812 1291.84984201 -936 1290 C-939.48777071 1298.22132544 -942.23083261 1306.65029913 -944.921875 1315.15625 C-945.38995152 1316.62675966 -945.85832143 1318.09717595 -946.32696533 1319.56750488 C-947.30747102 1322.64634275 -948.28557144 1325.72592993 -949.26171875 1328.80615234 C-950.48637801 1332.67046099 -951.7152173 1336.53342229 -952.94567108 1340.39588928 C-958.73335738 1358.5661293 -964.43923631 1376.75883885 -970 1395 C-969.21165771 1395.41660889 -968.42331543 1395.83321777 -967.61108398 1396.26245117 C-941.14598747 1410.26593001 -941.14598747 1410.26593001 -928.625 1417.4375 C-918.14322554 1423.43435694 -907.49880697 1429.1000737 -896.8203125 1434.73583984 C-887.61677031 1439.59497112 -878.46173131 1444.52986076 -869.37084961 1449.59790039 C-868.54979736 1450.05156982 -867.72874512 1450.50523926 -866.8828125 1450.97265625 C-866.17527832 1451.36718994 -865.46774414 1451.76172363 -864.73876953 1452.16821289 C-863.02054927 1453.14384688 -863.02054927 1453.14384688 -861 1453 C-861.18175781 1453.68280029 -861.36351562 1454.36560059 -861.55078125 1455.0690918 C-863.75470238 1463.58314994 -865.44446392 1472.16159538 -867 1480.8125 C-867.19459808 1481.88393753 -867.19459808 1481.88393753 -867.39312744 1482.97702026 C-869.67982393 1495.60243666 -871.53347463 1508.25152069 -873 1521 C-873.66775105 1521.05276565 -874.33550211 1521.10553129 -875.02348804 1521.1598959 C-881.70325018 1521.72244533 -888.27510843 1522.58379949 -894.88745117 1523.67407227 C-896.42604797 1523.92300735 -896.42604797 1523.92300735 -897.99572754 1524.17697144 C-901.34540584 1524.71983914 -904.69418113 1525.26807345 -908.04296875 1525.81640625 C-910.38131892 1526.19645466 -912.71972415 1526.5761644 -915.05818176 1526.95555115 C-921.18244787 1527.95006624 -927.3059597 1528.94915166 -933.42932129 1529.94921875 C-940.7927889 1531.15083181 -948.15718874 1532.34671675 -955.52143097 1533.54357147 C-966.68167089 1535.35801435 -977.84070842 1537.17969003 -989 1539 C-989 1570.68 -989 1602.36 -989 1635 C-925.31 1635 -861.62 1635 -796 1635 C-795.34 1615.86 -794.68 1596.72 -794 1577 C-788.03806511 1478.62807429 -768.57695042 1380.81769702 -721.25976562 1275.69140625 C-720.07208375 1273.15400218 -718.90096375 1270.60965498 -717.734375 1268.0625 C-697.69103735 1224.58885102 -671.0161344 1183.25206158 -641 1146 C-640.25363281 1145.07058594 -639.50726562 1144.14117188 -638.73828125 1143.18359375 C-630.05171761 1132.46964542 -621.06622538 1122.01938349 -611.6875 1111.90625 C-609.94537167 1110.02232053 -608.21535838 1108.12708619 -606.5 1106.21875 C-600.77598083 1099.86648482 -594.84881027 1093.74415115 -588.8125 1087.6875 C-588.06411865 1086.93452637 -587.3157373 1086.18155273 -586.54467773 1085.40576172 C-582.4334312 1081.30585593 -578.23231559 1077.37728752 -573.83325195 1073.58813477 C-571.2250219 1071.32864129 -568.71261528 1068.97706542 -566.1875 1066.625 C-561.59440625 1062.38689299 -556.88729778 1058.34399807 -552.015625 1054.42578125 C-549.80357784 1052.64640135 -547.60793161 1050.85369447 -545.421875 1049.04296875 C-523.37096144 1030.83453525 -499.922628 1013.89705701 -475.28857422 999.35839844 C-472.91132373 997.94736561 -470.55091422 996.5107947 -468.19140625 995.0703125 C-398.97872608 953.10332202 -322.14321929 924.77168644 -130 894 C-128.81576447 893.9354512 -128.81576447 893.9354512 -127.60760498 893.86959839 C-109.90181054 892.93462205 -92.22676552 892.88211611 -74.5 892.9375 C-65.095 892.958125 -55.69 892.97875 -46 893 C-46 861.98 -46 830.96 -46 799 C-60.97375 799.2165625 -60.97375 799.2165625 -76.25 799.4375 C-79.35696289 799.48060303 -82.46392578 799.52370605 -85.66503906 799.56811523 C-100.12704724 799.7812404 -114.56101627 800.10877221 -129 801 C-129.37777588 799.77253052 -129.37777588 799.77253052 -129.76318359 798.52026367 C-131.19763308 794.43749085 -132.95096379 790.58932033 -134.7890625 786.67578125 C-135.1642099 785.86993088 -135.5393573 785.06408051 -135.9258728 784.23381042 C-136.7340371 782.49849408 -137.54362408 780.76383973 -138.35449219 779.02978516 C-140.52686509 774.38364558 -142.68857647 769.73254628 -144.8515625 765.08203125 C-145.50925629 763.6690123 -145.50925629 763.6690123 -146.18023682 762.22744751 C-150.16064195 753.66997432 -154.0878214 745.08882607 -158 736.5 C-164.86317514 721.43884409 -171.81502847 706.41950625 -178.79492188 691.41210938 C-179.18624802 690.56976746 -179.57757416 689.72742554 -179.98075867 688.85955811 C-180.71018138 687.28952194 -181.44043283 685.7198704 -182.17170715 684.1506958 C-184.19320832 679.79802537 -186.13126612 675.42050469 -188 671 C-192.84131614 670.83484775 -197.36263245 671.46612251 -202.10083008 672.36108398 Z M-475 1056 C-476.20956039 1056.84906523 -477.4191956 1057.69802387 -478.62890625 1058.546875 C-490.07591612 1066.61656457 -501.1149603 1075.18830119 -512 1084 C-512.89460937 1084.71929688 -513.78921875 1085.43859375 -514.7109375 1086.1796875 C-520.17694554 1090.60455115 -525.48022786 1095.15960014 -530.6796875 1099.89453125 C-532.70154184 1101.72917685 -534.74678522 1103.52768786 -536.8125 1105.3125 C-546.85286121 1114.1076983 -556.42747891 1123.32510614 -565.875 1132.75 C-566.37291046 1133.24532227 -566.87082092 1133.74064453 -567.38381958 1134.25097656 C-572.60394326 1139.44970409 -577.73388042 1144.68555917 -582.52880859 1150.28369141 C-584.58455653 1152.68195028 -586.73176271 1154.99246368 -588.875 1157.3125 C-593.7957178 1162.71491457 -598.42792553 1168.30168859 -603 1174 C-603.91225289 1175.12020516 -604.82503803 1176.23997705 -605.73828125 1177.359375 C-631.71644092 1209.34021271 -654.15101956 1243.98799747 -673.55615234 1280.3046875 C-674.92815268 1282.86587851 -676.31625368 1285.41772171 -677.70703125 1287.96875 C-715.12008352 1357.2260498 -737.42050033 1435.32272732 -755.25 1563.0625 C-755.33317474 1563.97331329 -755.41634949 1564.88412659 -755.50204468 1565.82254028 C-757.13655095 1583.95165319 -758.17316996 1601.98180253 -758.0625 1620.1875 C-758.041875 1625.075625 -758.02125 1629.96375 -758 1635 C-741.17 1635 -724.34 1635 -707 1635 C-706.7525 1629.121875 -706.505 1623.24375 -706.25 1617.1875 C-704.39007282 1578.6971174 -699.56266012 1535.66412605 -671 1507 C-670.38769531 1506.36449219 -669.77539062 1505.72898437 -669.14453125 1505.07421875 C-656.16595033 1492.59374968 -639.18789428 1489.46874742 -621.85595703 1489.58227539 C-604.11420776 1490.04039568 -588.3759249 1495.57989308 -572 1502 C-571.37303223 1502.24556641 -570.74606445 1502.49113281 -570.10009766 1502.74414062 C-563.33516523 1505.39524046 -556.57641095 1508.06188188 -549.82299805 1510.7421875 C-536.57433136 1515.99921196 -523.29328199 1521.16943788 -510 1526.3125 C-493.82146111 1532.57406807 -477.65296422 1538.86023341 -461.5 1545.1875 C-460.54823883 1545.56026062 -459.59647766 1545.93302124 -458.61587524 1546.31707764 C-454.82262742 1547.80273851 -451.02941811 1549.28849762 -447.23628235 1550.77444458 C-437.72228458 1554.50125955 -428.20586303 1558.22184858 -418.6875 1561.9375 C-417.44811172 1562.42133652 -417.44811172 1562.42133652 -416.1836853 1562.91494751 C-401.03251484 1568.82825908 -385.86736228 1574.70530612 -370.70126343 1580.5802002 C-355.6233761 1586.42183749 -340.55639468 1592.29069099 -325.5 1598.1875 C-324.54796692 1598.56035126 -323.59593384 1598.93320251 -322.61505127 1599.31735229 C-318.82209002 1600.80290798 -315.02917849 1602.28859055 -311.23632812 1603.77442932 C-297.56105143 1609.13128375 -283.88070526 1614.47507575 -270.19471741 1619.80450439 C-264.18459617 1622.1458398 -258.17816005 1624.49647117 -252.1728363 1626.8500824 C-247.65956235 1628.61760508 -243.14437164 1630.38019528 -238.6288147 1632.14187622 C-236.43381781 1632.99942154 -234.23961062 1633.85899118 -232.04623413 1634.72067261 C-228.98732232 1635.9220307 -225.9256594 1637.11610462 -222.86328125 1638.30859375 C-221.49739365 1638.84800598 -221.49739365 1638.84800598 -220.10391235 1639.39831543 C-219.25404755 1639.72763062 -218.40418274 1640.0569458 -217.52856445 1640.39624023 C-216.79507278 1640.6832933 -216.06158112 1640.97034637 -215.30586243 1641.26609802 C-212.4398068 1642.17829637 -210.01893992 1642.80503741 -207 1643 C-204.42443785 1641.46084868 -204.42443785 1641.46084868 -202.14955139 1638.99806213 C-201.22586258 1638.08544113 -200.30217377 1637.17282013 -199.35049438 1636.23254395 C-198.34409051 1635.20296004 -197.33802896 1634.17304144 -196.33227539 1633.14282227 C-195.26051339 1632.07072279 -194.18721606 1631.00015628 -193.11250305 1629.93101501 C-190.195675 1627.02047626 -187.30104095 1624.08872916 -184.40995717 1621.1526463 C-181.37722997 1618.07985905 -178.32504878 1615.02651803 -175.27500916 1611.97093201 C-170.15006784 1606.83126445 -165.03800207 1601.67908621 -159.93481445 1596.51782227 C-152.75689097 1589.25824615 -145.55654137 1582.02124718 -138.35130322 1574.78879464 C-132.74164222 1569.15642137 -127.13767371 1563.51838422 -121.53515625 1557.87890625 C-120.93759624 1557.27744066 -120.34003623 1556.67597506 -119.72436833 1556.05628324 C-116.2748913 1552.58332183 -112.82844228 1549.1073991 -109.38615227 1545.62731361 C-108.34655641 1544.57688893 -107.30619715 1543.52721909 -106.26498413 1542.47839737 C-101.18812225 1537.36299708 -96.22676746 1532.21259376 -91.5299902 1526.74550152 C-89.24481382 1524.13843982 -86.80722121 1521.74241404 -84.32421875 1519.32177734 C-83.24964747 1518.27015902 -82.17510443 1517.21851186 -81.10058594 1516.1668396 C-80.54399292 1515.62409771 -79.9873999 1515.08135582 -79.41394043 1514.52216721 C-76.43095146 1511.60865538 -73.46506616 1508.67778158 -70.49609375 1505.75 C-66.73476698 1502.04273916 -62.96850174 1498.34092533 -59.18408203 1494.65722656 C-56.10694435 1491.66109695 -53.04709831 1488.64825229 -49.99819946 1485.62340164 C-48.83697908 1484.47761504 -47.6694885 1483.33814696 -46.49569702 1482.20524216 C-44.8608218 1480.62577399 -43.24893264 1479.02588301 -41.640625 1477.41943359 C-40.71797852 1476.5153476 -39.79533203 1475.6112616 -38.84472656 1474.67977905 C-36.69234991 1472.12202644 -36.69234991 1472.12202644 -37.10498047 1468.94332886 C-37.87873079 1466.39880155 -38.66462878 1463.94413427 -39.6796875 1461.48730469 C-40.02585114 1460.64058701 -40.37201477 1459.79386932 -40.72866821 1458.92149353 C-41.29610245 1457.56043236 -41.29610245 1457.56043236 -41.875 1456.171875 C-42.4689003 1454.72579613 -42.4689003 1454.72579613 -43.07479858 1453.25050354 C-44.37763724 1450.08134733 -45.68893027 1446.91575878 -47 1443.75 C-47.91690887 1441.52268013 -48.83307802 1439.29505561 -49.74853516 1437.06713867 C-51.14811836 1433.66117316 -52.54810709 1430.25538199 -53.9503479 1426.85050964 C-57.79433221 1417.51565401 -61.59300448 1408.16309609 -65.3706665 1398.80123901 C-72.25233301 1381.74846522 -79.18284533 1364.71572462 -86.125 1347.6875 C-92.55465591 1331.91626676 -98.97668931 1316.14210373 -105.36828613 1300.35540771 C-111.18168845 1285.99872928 -117.02769438 1271.65539792 -122.875 1257.3125 C-129.77633094 1240.38395495 -136.6601844 1223.44859744 -143.51068115 1206.49942017 C-149.64606869 1191.32162336 -155.81934353 1176.15941233 -162 1161 C-168.50256964 1145.0486721 -175.00212023 1129.09615179 -181.47094727 1113.13110352 C-182.18572063 1111.36727115 -182.90087535 1109.60359327 -183.61645508 1107.84008789 C-203.98048438 1057.64527004 -203.98048438 1057.64527004 -193.93359375 1033.4296875 C-185.00820809 1014.1649937 -166.44638667 1003.0032223 -147.15332031 995.76953125 C-114.5216151 984.10795134 -80.36833906 981.20590663 -46 980 C-46 964.82 -46 949.64 -46 934 C-123.59241974 918.48151605 -226.56471755 945.47410894 -475 1056 Z " fill="#FFFFFF" transform="translate(1234,93)"/>
<path d="M0 0 C18.72866806 16.10205057 27.50031069 38.1748537 36.3046875 60.6328125 C37.1859531 62.85906862 38.06813676 65.08496152 38.95117188 67.31051636 C40.81319637 72.00841806 42.66939497 76.70855937 44.52075195 81.41067505 C47.43540676 88.81285693 50.36373716 96.20957928 53.29492188 103.60522461 C54.27504978 106.07861849 55.25515242 108.55202238 56.23522949 111.0254364 C56.71697128 112.24119543 57.19871307 113.45695446 57.6950531 114.70955467 C59.14344558 118.36630318 60.5905575 122.0235558 62.03723145 125.6809845 C68.76051617 142.67683891 75.53912476 159.64843837 82.3984375 176.58984375 C84.28832663 181.26279198 86.17741313 185.93606451 88.06640625 190.609375 C88.3130068 191.21926962 88.55960735 191.82916424 88.81368065 192.45754051 C97.67468869 214.37425419 106.47864753 236.31399983 115.29318237 258.24943161 C116.67736337 261.6937986 118.06177925 265.13807108 119.44628906 268.58230591 C132.29680946 300.55075751 145.11285323 332.53286547 157.8984375 364.52734375 C153.17605373 370.18976501 148.14766934 375.45587905 142.95898438 380.69140625 C142.08017105 381.58160965 141.20135773 382.47181305 140.2959137 383.38899231 C137.4063209 386.3134141 134.5127611 389.23384638 131.6171875 392.15234375 C131.12317633 392.65030079 130.62916515 393.14825783 130.12018394 393.66130447 C125.45736903 398.36046888 120.79207921 403.05716641 116.12174225 407.74885559 C110.16308179 413.73517563 104.21639701 419.73288353 98.28492498 425.74614716 C94.10245492 429.98432396 89.90673192 434.20908755 85.70094538 438.42412567 C83.19246535 440.9388664 80.69028041 443.45920786 78.20225525 445.99420166 C75.43321974 448.81487708 72.63705649 451.60764378 69.83789062 454.3984375 C68.6080117 455.66371025 68.6080117 455.66371025 67.35328674 456.95454407 C61.72729129 462.49917235 61.72729129 462.49917235 57.63104248 462.63839722 C56.72928284 462.27174957 55.82752319 461.90510193 54.8984375 461.52734375 C53.73063751 461.15526291 53.73063751 461.15526291 52.53924561 460.77566528 C51.7796051 460.47989594 51.0199646 460.18412659 50.23730469 459.87939453 C49.35607437 459.53962585 48.47484406 459.19985718 47.56690979 458.84979248 C46.61928268 458.47783752 45.67165558 458.10588257 44.6953125 457.72265625 C43.68609238 457.33200989 42.67687225 456.94136353 41.6370697 456.53887939 C39.45177921 455.69235245 37.26748287 454.84325564 35.08407593 453.99188232 C30.4019947 452.16636181 25.71510724 450.35334188 21.02836609 448.53982544 C18.59593636 447.59858512 16.16373893 446.65674426 13.73176575 445.71432495 C1.70373246 441.05587273 -10.35255856 436.47327486 -22.4140625 431.90234375 C-26.57315647 430.32485031 -30.73196932 428.74661726 -34.890625 427.16796875 C-36.41987862 426.58746765 -36.41987862 426.58746765 -37.98002625 425.99523926 C-48.75772323 421.90186616 -59.52421373 417.77936446 -70.2890625 413.65234375 C-87.38805091 407.09706501 -104.49264653 400.5566705 -121.6015625 394.02734375 C-139.55251491 387.17632492 -157.49956044 380.31525421 -175.44091797 373.43914795 C-188.21553554 368.54339913 -200.99400189 363.65786028 -213.77635193 358.78233337 C-223.13166038 355.21390401 -232.48497568 351.64028125 -241.8374176 348.06434631 C-247.44059817 345.92282767 -253.04628552 343.78825631 -258.65661621 341.6655426 C-295.42465989 327.74757038 -295.42465989 327.74757038 -307.1015625 317.52734375 C-307.77316406 316.99753906 -308.44476562 316.46773437 -309.13671875 315.921875 C-323.93113539 303.92100909 -330.92034549 286.27046021 -333.63671875 267.91015625 C-338.37111057 218.17183302 -310.05681395 168.5897134 -281.1015625 130.52734375 C-280.62090332 129.89505859 -280.14024414 129.26277344 -279.64501953 128.61132812 C-270.22200075 116.29016998 -260.19606731 104.5148311 -249.62304688 93.16650391 C-247.95654652 91.37111184 -246.30236175 89.56479328 -244.6484375 87.7578125 C-238.87495858 81.47495514 -233.09151276 75.36342611 -226.64453125 69.7578125 C-224.75588788 68.10126048 -222.91498992 66.42703395 -221.08984375 64.703125 C-214.02241498 58.0318695 -206.71833142 51.87022357 -198.9921875 45.9765625 C-197.00726586 44.45506265 -195.0381712 42.91458598 -193.0703125 41.37109375 C-144.4697104 3.43628601 -58.2750954 -46.4586088 0 0 Z " fill="#FFFFFF" transform="translate(970.1015625,1202.47265625)"/>
<path d="M0 0 C33.638367 -2.77747984 69.18464494 16.51389592 93.91796875 37.47265625 C96.33013117 39.6001762 98.67357658 41.77951572 101 44 C101.63550781 44.57234375 102.27101563 45.1446875 102.92578125 45.734375 C114.72290325 56.77433182 123.71991202 70.68572616 131 85 C131.34901367 85.67498535 131.69802734 86.3499707 132.05761719 87.04541016 C142.93568415 108.27518601 155.96897277 141.49219195 149.9375 165.4375 C146.45140075 174.50035871 139.18255708 181.15781813 132.47265625 187.93359375 C131.56551376 188.85213638 130.65837128 189.77067902 129.72373962 190.71705627 C127.81548024 192.64615949 125.90274205 194.57070214 123.98754883 196.49291992 C121.54178818 198.94971454 119.11518798 201.42457681 116.69240665 203.904006 C114.36149067 206.28118151 112.00946368 208.63709431 109.66015625 210.99609375 C108.79640884 211.88453476 107.93266144 212.77297577 107.04273987 213.68833923 C100.25920657 220.42227782 100.25920657 220.42227782 96.02124023 221.18774414 C93 221 93 221 91 219 C90.77967834 216.92236328 90.77967834 216.92236328 90.82055664 214.3203125 C90.83530785 212.85476929 90.83530785 212.85476929 90.85035706 211.35961914 C90.87009079 210.29219482 90.88982452 209.22477051 90.91015625 208.125 C90.93064147 205.83463811 90.95081232 203.54427338 90.97070312 201.25390625 C91.01350559 197.66768854 91.06124282 194.08165385 91.11645508 190.49560547 C91.93077749 133.50908249 77.89117743 77.30882455 38 35 C37.32839844 34.26394531 36.65679688 33.52789063 35.96484375 32.76953125 C26.41734598 22.68665978 14.95400468 15.10863325 2.6328125 8.8515625 C0 7 0 7 -0.9453125 4.3984375 C-1 2 -1 2 0 0 Z " fill="#FFFFFF" transform="translate(1742,1968)"/>
</svg>
