<?xml version="1.0" encoding="utf-8"?>
<!-- Generator: Adobe Illustrator 24.0.1, SVG Export Plug-In . SVG Version: 6.00 Build 0)  -->
<svg version="1.1" id="Слой_1" xmlns="http://www.w3.org/2000/svg" xmlns:xlink="http://www.w3.org/1999/xlink" x="0px" y="0px"
	 viewBox="0 0 59.3 59.3" style="enable-background:new 0 0 59.3 59.3;" xml:space="preserve">
<style type="text/css">
	.st0{fill:#FFFFFF;}
</style>
<g>
	<path class="st0" d="M49.5,12.4c-0.9,1.3-1.5,2.4-2.3,3.4c-0.2,0.3-0.7,0.4-1,0.4c-11.3,0-22.7,0-34,0c-0.1,0-0.2,0-0.5-0.1
		c0.7-1.1,1.3-2.2,2.1-3.2c0.2-0.3,0.6-0.4,1-0.5C26.2,12.4,37.7,12.4,49.5,12.4z"/>
	<path class="st0" d="M26.4,37.2c-0.1,0.3-0.2,0.4-0.2,0.5C24.3,41,24.3,41,20.4,41c-1.9,0-3.9,0-5.8,0c-0.1,0-0.2,0-0.5-0.1
		c0.8-1.2,1.5-2.4,2.3-3.5c0.1-0.2,0.5-0.2,0.8-0.2c2.7,0,5.3,0,8,0C25.6,37.2,25.9,37.2,26.4,37.2z"/>
	<path class="st0" d="M17.5,34.8c0.8-1.2,1.4-2.3,2.1-3.3c0.2-0.2,0.5-0.5,0.8-0.5c3.1,0,6.2,0,9.5,0c-0.8,1.3-1.5,2.4-2.2,3.5
		c-0.2,0.2-0.6,0.3-0.9,0.3C23.8,34.8,20.8,34.8,17.5,34.8z"/>
	<path class="st0" d="M36.9,18.6c-0.8,1.3-1.5,2.4-2.2,3.5c-0.1,0.2-0.5,0.3-0.8,0.3c-3.1,0-6.1,0-9.4,0c0.8-1.2,1.5-2.4,2.2-3.4
		c0.2-0.2,0.5-0.4,0.9-0.4C30.6,18.6,33.6,18.6,36.9,18.6z"/>
	<path class="st0" d="M33.5,24.8c-0.9,1.3-1.5,2.4-2.2,3.4c-0.2,0.3-0.6,0.4-1,0.4c-3,0-6,0-9.3,0c0.9-1.3,1.6-2.5,2.4-3.6
		c0.1-0.1,0.4-0.2,0.6-0.2C27,24.8,30.1,24.8,33.5,24.8z"/>
	<path class="st0" d="M10.4,47.4c0.8-1.3,1.5-2.4,2.2-3.5c0.1-0.2,0.4-0.3,0.6-0.3c3.1,0,6.2,0,9.6,0c-0.8,1.3-1.5,2.4-2.2,3.5
		c-0.1,0.2-0.4,0.3-0.6,0.3C16.9,47.4,13.8,47.4,10.4,47.4z"/>
	<path class="st0" d="M19.3,50c-0.7,1.1-1.4,2.2-2.1,3.2c-0.2,0.3-0.6,0.4-1,0.4c-3,0-6,0-9.2,0c0.9-1.3,1.6-2.6,2.4-3.7
		c0.1-0.1,0.4-0.1,0.6-0.1c2.9,0,5.9,0,8.8,0C18.9,49.8,19,49.9,19.3,50z"/>
	<path class="st0" d="M52.9,6.2c-0.9,1.3-1.5,2.4-2.3,3.4c-0.2,0.3-0.7,0.4-1,0.4c-11.3,0-22.7,0-34,0c-0.1,0-0.2,0-0.5-0.1
		c0.7-1.1,1.3-2.2,2.1-3.2c0.2-0.3,0.6-0.4,1-0.5C29.6,6.2,41.1,6.2,52.9,6.2z"/>
</g>
</svg>
