<?xml version="1.0" encoding="utf-8"?>
<!-- Generator: Adobe Illustrator 24.0.1, SVG Export Plug-In . SVG Version: 6.00 Build 0)  -->
<svg version="1.1" id="Слой_1" xmlns="http://www.w3.org/2000/svg" xmlns:xlink="http://www.w3.org/1999/xlink" x="0px" y="0px"
	 viewBox="0 0 171.4 170.4" style="enable-background:new 0 0 171.4 170.4;" xml:space="preserve">
<style type="text/css">
	.st0{fill:#FFFFFF;}
</style>
<path class="st0" d="M67.3,31.1c0,1.2,0,2.1,0,3.1c0,2.9,0,5.9,0,8.8c0,0.7-0.2,1.1-0.8,1.4c-7,4.1-14.1,8.1-21.1,12.2
	c-1.1,0.6-2.1,1.2-3.1,1.8c-0.8,0.5-1.1,1.1-1.1,2.1c0,4.4,0.1,8.6,0.1,13c0,12.6,0.1,25.2,0.1,37.8c0,0.6,0.2,1,0.7,1.3
	c4.6,2.7,9.2,5.4,13.8,8c9.8,5.6,19.6,11.1,29.3,16.6c0.9,0.5,1.8,0.5,2.7,0c7.6-4.4,15.3-8.9,22.9-13.3c5.6-3.2,11.2-6.4,16.7-9.6
	c0.2-0.1,0.3-0.2,0.5-0.3c0.6-0.4,0.6-0.8,0-1.2c-2.9-1.7-5.7-3.4-8.6-5c-3.6-2.1-7.2-4.1-10.8-6.2c-4.1-2.4-8.2-4.7-12.3-7.1
	c-3.4-1.9-6.7-3.8-10-5.8c-0.5-0.3-0.9-0.7-0.8-1.3c0-0.3,0-0.6,0-0.8c0-21.5,0-42.9,0-64.4c0-0.2,0-0.5,0-0.8
	c0-0.9,0.7-1.4,1.5-0.8c2.4,1.4,4.9,2.8,7.3,4.1c6.3,3.6,12.5,7.3,18.8,10.9c9.7,5.6,19.3,11.2,29,16.7c0.8,0.5,1,0.9,1,1.8
	c0,17.5,0,35,0,52.5c0,0.4,0,0.8,0.2,1.2c0.2,0.8,0.9,1.1,1.5,1.4c5,2.9,10.2,5.8,15.2,8.7c0.8,0.5,0.8,0.6,0.4,1.5
	c-1.5,2.8-3.1,5.5-4.7,8.3c-0.5,0.8-0.6,0.8-1.4,0.3c-4.1-2.4-8.2-4.7-12.2-7c-1.2-0.7-2.3-0.7-3.5,0c-8.9,5.1-17.8,10.2-26.7,15.4
	c-8.1,4.7-16.2,9.3-24.2,14c-0.7,0.4-1.4,0.4-2.1,0c-6.1-3.6-12.2-7.2-18.3-10.7c-0.5-0.3-1.1-0.5-1.6-0.8c-2-1.1-3.9-2.4-5.9-3.4
	c-8.3-4.7-16.5-9.4-24.8-14.1c-1.4-0.8-2.8-1.5-4.2-2.4c-0.8-0.5-1.3-1.1-1.3-2.3c0-20.6,0-41.3,0-61.9c0-1.2,0.5-2,1.5-2.6
	c11.3-6.4,22.7-13,34-19.5C65.8,31.9,66.5,31.6,67.3,31.1z M97,60.4c0,6.6,0,13.2,0,19.8c0,0.8,0.2,1.4,1,1.8
	c1.7,0.9,3.2,1.9,4.9,2.8c2.7,1.5,5.4,3.1,8,4.6c3.4,2,6.9,4,10.3,6c3.1,1.8,6.2,3.5,9.2,5.4c1.3,0.8,1.7,0,1.7-1.1
	c-0.1-4.7-0.2-9.5-0.2-14.2c0-8.6,0.1-17.2,0.2-25.8c0-0.8-0.2-1.3-1.1-1.8c-6.4-3.5-12.7-7-19.1-10.6c-4.5-2.5-8.9-5-13.5-7.6
	C97.4,39,97,39.5,97,40.6C97,47.1,97,53.7,97,60.4z"/>
</svg>
