<?xml version="1.0" encoding="utf-8"?>
<!-- Generator: Adobe Illustrator 24.0.1, SVG Export Plug-In . SVG Version: 6.00 Build 0)  -->
<svg version="1.1" id="Слой_1" xmlns="http://www.w3.org/2000/svg" xmlns:xlink="http://www.w3.org/1999/xlink" x="0px" y="0px"
	 viewBox="0 0 582.2 152.4" style="enable-background:new 0 0 582.2 152.4;" xml:space="preserve">
<style type="text/css">
	.st0{fill:#FFFFFF;}
</style>
<path class="st0" d="M524.2,127h-50.1c-28.1,0-30.6-23.2-30.6-30.3c0-7.1,2.5-30.3,30.6-30.3h50.1c28.1,0,30.6,23.2,30.6,30.3
	C554.9,103.8,552.4,127,524.2,127 M525.3,41H475c-52.3,0-56.9,42.7-56.9,55.7s4.7,55.7,56.9,55.7h50.3c52.3,0,56.9-42.7,56.9-55.7
	S577.6,41,525.3,41 M408.1,44.9h-16.3c-7,0-8.4,1.2-11.1,5.1c-2.7,3.9-49.3,74.2-49.3,74.2c-1.5,2.2-3.1,3-5,3c-2,0-3.5-0.9-5-3
	c0,0-46.6-70.2-49.3-74.2c-2.7-3.9-4.1-5.1-11.1-5.1h-16.3c-3.8,0-5.5,2.9-3.1,6.4l55.7,83.4c8.6,12.5,15,17.6,29.2,17.6
	s20.5-5.1,29.2-17.6l55.7-83.4C413.5,47.8,411.8,44.9,408.1,44.9 M193.4,51.7c0-4.9,1.9-6.8,6.7-6.8h12c4.8,0,6.7,1.9,6.7,6.8v93.8
	c0,4.9-1.9,6.8-6.7,6.8h-12c-4.8,0-6.7-1.9-6.7-6.8L193.4,51.7z M192.4,22c-3.9-3.9-3.9-6.9,0-10.8l8.3-8.3c3.9-3.9,6.9-3.9,10.8,0
	l8.3,8.3c3.9,3.9,3.9,7,0,10.8l-8.3,8.3c-3.9,3.9-6.9,3.9-10.8,0L192.4,22L192.4,22z M167.7,44.9h-16.3c-7,0-8.4,1.2-11.1,5.1
	C137.6,54,91,124.2,91,124.2c-1.5,2.2-3.1,3-5,3c-2,0-3.5-0.9-5-3c0,0-46.6-70.2-49.3-74.2c-2.7-3.9-4.1-5.1-11.1-5.1H4.3
	c-4.2,0-5.5,2.9-3.1,6.4c2.4,3.5,55.6,83.4,55.6,83.4c8.6,12.5,15,17.6,29.2,17.6c14.2,0,20.5-5.1,29.2-17.6l55.6-83.4
	C173.1,47.8,171.8,44.9,167.7,44.9"/>
</svg>
